<?xml version="1.0" encoding="UTF-8"?>
<svg id="Layer_1" xmlns="http://www.w3.org/2000/svg" version="1.1" viewBox="0 0 500 500">
  <!-- Generator: Adobe Illustrator 30.1.0, SVG Export Plug-In . SVG Version: 2.1.1 Build 136)  -->
  <defs>
    <style>
      .st0 {
        fill: none;
      }

      .st1 {
        fill: #12aaff;
      }

      .st2 {
        fill: #fff;
      }

      .st3 {
        fill: #9dcced;
      }

      .st4 {
        fill: #213147;
      }
    </style>
  </defs>
  <g id="Layer_x5F_1">
    <g id="_2405588477232">
      <rect class="st0" x="-.85" y=".07" width="500.85" height="500.85"/>
      <g>
        <path class="st4" d="M44.42,152.33v196.33c0,12.62,6.61,24.04,17.63,30.45l170.09,98.17c10.82,6.21,24.24,6.21,35.06,0l170.09-98.17c10.82-6.21,17.63-17.83,17.63-30.45v-196.33c0-12.62-6.61-24.04-17.63-30.45L267.2,23.71c-10.82-6.21-24.24-6.21-35.06,0L62.05,121.88c-10.82,6.21-17.43,17.83-17.43,30.45h-.2Z"/>
        <g>
          <path class="st1" d="M286.64,288.56l-24.24,66.51c-.6,1.8-.6,3.81,0,5.81l41.67,114.39,48.28-27.85-57.9-158.87c-1.4-3.61-6.41-3.61-7.81,0Z"/>
          <path class="st1" d="M335.32,176.77c-1.4-3.61-6.41-3.61-7.81,0l-24.24,66.51c-.6,1.8-.6,3.81,0,5.81l68.32,187.32,48.28-27.85-84.54-231.59v-.2Z"/>
        </g>
        <path class="st3" d="M249.57,31.12c1.2,0,2.4.4,3.41,1l183.91,106.18c2.2,1.2,3.41,3.61,3.41,6.01v212.36c0,2.4-1.4,4.81-3.41,6.01l-183.91,106.18c-1,.6-2.2,1-3.41,1s-2.4-.4-3.41-1l-183.91-106.18c-2.2-1.2-3.41-3.61-3.41-6.01v-212.56c0-2.4,1.4-4.81,3.41-6.01L246.17,31.93c1-.6,2.2-1,3.41-1h0v.2ZM249.57.07c-6.61,0-13.02,1.6-19.03,5.01L46.63,111.26c-11.82,6.81-19.03,19.23-19.03,32.86v212.36c0,13.62,7.21,26.04,19.03,32.86l183.91,106.18c5.81,3.41,12.42,5.01,19.03,5.01s13.02-1.6,19.03-5.01l183.91-106.18c11.82-6.81,19.03-19.23,19.03-32.86v-212.36c0-13.62-7.21-26.04-19.03-32.86L268.41,5.08c-5.81-3.41-12.42-5.01-19.03-5.01h.2Z"/>
        <polygon class="st4" points="127.77 436.61 144.8 390.13 178.85 418.38 147 447.63 127.77 436.61"/>
        <g>
          <path class="st2" d="M233.95,129.09h-46.68c-3.41,0-6.61,2.2-7.81,5.41l-99.97,274.07,48.28,27.85,110.19-301.91c1-2.8-1-5.61-3.81-5.61l-.2.2Z"/>
          <path class="st2" d="M315.69,129.09h-46.68c-3.41,0-6.61,2.2-7.81,5.41l-114.19,312.93,48.28,27.85,124.21-340.78c1-2.8-1-5.61-3.81-5.61v.2Z"/>
        </g>
      </g>
    </g>
  </g>
</svg>