<?xml version="1.0" encoding="UTF-8"?>
<svg id="Layer_1" xmlns="http://www.w3.org/2000/svg" xmlns:xlink="http://www.w3.org/1999/xlink" version="1.1" viewBox="0 0 500 500">
  <!-- Generator: Adobe Illustrator 30.1.0, SVG Export Plug-In . SVG Version: 2.1.1 Build 136)  -->
  <defs>
    <style>
      .st0 {
        fill: #232323;
      }

      .st1 {
        fill: url(#linear-gradient);
      }
    </style>
    <linearGradient id="linear-gradient" x1="146.85" y1="266.01" x2="394.28" y2="25.11" gradientTransform="translate(-20.94 104.36)" gradientUnits="userSpaceOnUse">
      <stop offset="0" stop-color="#cf41e8"/>
      <stop offset="1" stop-color="#10f2b0"/>
    </linearGradient>
  </defs>
  <path class="st0" d="M249.8-1.1h.4c134.9,0,244.3,109.4,244.3,244.3v13.6c0,134.9-109.4,244.3-244.3,244.3h-.4c-134.9,0-244.3-109.4-244.3-244.3v-13.6C5.5,108.3,114.9-1.1,249.8-1.1Z"/>
  <path class="st1" d="M350.61,188.15c-.8.9-1.8,1.6-2.9,2-1.1.5-2.3.7-3.5.7H117.71c-8,0-12.1-10-6.5-16l37.2-39.5c.8-.9,1.8-1.6,3-2.1,1.1-.5,2.3-.7,3.5-.7h227.4c8.1,0,12.1,10.1,6.4,16.1l-38.1,39.5ZM350.61,364.75c-1.7,1.7-4,2.7-6.4,2.7H117.71c-8,0-12.1-9.8-6.5-15.6l37.2-38.6c.8-.9,1.9-1.6,3-2,1.1-.5,2.3-.7,3.5-.7h227.4c8.1,0,12.1,9.9,6.4,15.7l-38.1,38.5ZM350.61,224.25c-1.7-1.7-4-2.7-6.4-2.7H117.71c-8,0-12.1,9.8-6.5,15.6l37.2,38.6c.8.9,1.9,1.6,3,2,1.1.5,2.3.7,3.5.7h227.4c8.1,0,12.1-9.9,6.4-15.7l-38.1-38.5Z"/>
</svg>