<?xml version="1.0" encoding="UTF-8"?>
<svg id="Layer_1" xmlns="http://www.w3.org/2000/svg" version="1.1" viewBox="0 0 1080 1080">
  <!-- Generator: Adobe Illustrator 29.6.1, SVG Export Plug-In . SVG Version: 2.1.1 Build 9)  -->
  <defs>
    <style>
      .st0 {
        fill: #eb540a;
      }
    </style>
  </defs>
  <path class="st0" d="M932.71,399.61v673.73h-17.22V449.94c0-207.09-168.63-375.72-375.72-375.72S164.51,242.43,164.51,449.94v623.39h-17.22V399.61C147.29,182.39,322.98,6.67,540.23,6.67s392.48,175.72,392.48,392.94Z"/>
  <path class="st0" d="M864.27,438.01v571.76h-17.22V481.71c0-169.52-137.73-307.28-307.28-307.28S232.47,311.73,232.47,481.28v528.03h-17.19V437.57c0-179.25,145.27-324.5,324.5-324.5s324.5,145.24,324.5,324.5c0,0,0,.43,0,.43Z"/>
  <path class="st0" d="M796.28,476.43v469.31h-17.22v-432.69c0-131.99-107.28-239.29-239.29-239.29s-239.26,107.3-239.26,239.31v432.69h-17.22v-469.33c0-141.71,114.79-256.51,256.51-256.51s256.08,114.79,256.08,256.51h.43-.03Z"/>
  <path class="st0" d="M727.83,514.86v367.31h-17.22v-337.35c-.08-94.32-76.52-170.76-170.84-170.84-94.04,0-170.87,76.8-170.87,170.84v337.32h-17.22v-367.31c.1-103.83,84.25-187.98,188.09-188.06,103.82.1,187.97,84.24,188.06,188.06v.03Z"/>
  <path class="st0" d="M659.87,553.23v265.37h-17.24v-241.93c-.07-56.78-46.08-102.79-102.86-102.86-56.71-.1-102.76,45.79-102.86,102.5,0,.12,0,.24,0,.36v241.93h-17.24v-265.37c.07-66.3,53.8-120.02,120.1-120.08,66.23,0,119.64,53.84,119.64,120.1h.43l.03-.03Z"/>
  <path class="st0" d="M591.43,591.66v162.92h-17.22v-146.59c0-18.97-15.44-34.44-34.44-34.44s-34.44,15.47-34.44,34.44v146.59h-17.22v-162.92c0-28.7,23.42-51.66,51.66-51.66s51.66,23.39,51.66,51.66Z"/>
</svg>