<svg width="482" height="175" viewBox="0 0 482 175" fill="none" xmlns="http://www.w3.org/2000/svg">
<g clip-path="url(#clip0_60_217)">
<line x1="4.5" y1="103" x2="156.5" y2="103" stroke="#C6DEEF" stroke-width="2"/>
<line x1="36.5" y1="71" x2="151.5" y2="71" stroke="#C6DEEF" stroke-width="2"/>
<line x1="1.48679" y1="107.838" x2="12.4868" y2="174.838" stroke="#C6DEEF" stroke-width="2"/>
<rect x="3" y="104.5" width="1" height="1" stroke="#C6DEEF"/>
<rect x="7" y="100.5" width="1" height="1" stroke="#C6DEEF"/>
<rect x="9" y="98.5" width="1" height="1" stroke="#C6DEEF"/>
<rect x="11" y="96.5" width="1" height="1" stroke="#C6DEEF"/>
<rect x="13" y="94.5" width="1" height="1" stroke="#C6DEEF"/>
<rect x="15" y="92.5" width="1" height="1" stroke="#C6DEEF"/>
<rect x="17" y="90.5" width="1" height="1" stroke="#C6DEEF"/>
<rect x="19" y="88.5" width="1" height="1" stroke="#C6DEEF"/>
<rect x="21" y="86.5" width="1" height="1" stroke="#C6DEEF"/>
<rect x="23" y="84.5" width="1" height="1" stroke="#C6DEEF"/>
<rect x="25" y="82.5" width="1" height="1" stroke="#C6DEEF"/>
<rect x="27" y="80.5" width="1" height="1" stroke="#C6DEEF"/>
<rect x="29" y="78.5" width="1" height="1" stroke="#C6DEEF"/>
<rect x="31" y="76.5" width="1" height="1" stroke="#C6DEEF"/>
<rect x="33" y="74.5" width="1" height="1" stroke="#C6DEEF"/>
<rect x="35" y="72.5" width="1" height="1" stroke="#C6DEEF"/>
<rect x="37" y="70.5" width="1" height="1" stroke="#C6DEEF"/>
<rect x="1" y="106.5" width="1" height="1" stroke="#C6DEEF"/>
<rect x="5" y="108.5" width="1" height="1" stroke="white"/>
<rect x="7" y="106.5" width="149" height="1" stroke="white"/>
<line x1="320.5" y1="133" x2="477.5" y2="133" stroke="#C05730" stroke-width="2"/>
<line x1="325.5" y1="101" x2="445.5" y2="101" stroke="#C05730" stroke-width="2"/>
<path d="M480.513 137.842L475 174" stroke="#C05730" stroke-width="2"/>
<rect x="-0.5" y="0.5" width="1" height="1" transform="matrix(-1 0 0 1 474.5 130)" stroke="#C05730"/>
<rect x="-0.5" y="0.5" width="1" height="1" transform="matrix(-1 0 0 1 472.5 128)" stroke="#C05730"/>
<rect x="-0.5" y="0.5" width="1" height="1" transform="matrix(-1 0 0 1 470.5 126)" stroke="#C05730"/>
<rect x="-0.5" y="0.5" width="1" height="1" transform="matrix(-1 0 0 1 468.5 124)" stroke="#C05730"/>
<rect x="-0.5" y="0.5" width="1" height="1" transform="matrix(-1 0 0 1 466.5 122)" stroke="#C05730"/>
<rect x="-0.5" y="0.5" width="1" height="1" transform="matrix(-1 0 0 1 464.5 120)" stroke="#C05730"/>
<rect x="-0.5" y="0.5" width="1" height="1" transform="matrix(-1 0 0 1 462.5 118)" stroke="#C05730"/>
<rect x="-0.5" y="0.5" width="1" height="1" transform="matrix(-1 0 0 1 460.5 116)" stroke="#C05730"/>
<rect x="-0.5" y="0.5" width="1" height="1" transform="matrix(-1 0 0 1 458.5 114)" stroke="#C05730"/>
<rect x="-0.5" y="0.5" width="1" height="1" transform="matrix(-1 0 0 1 456.5 112)" stroke="#C05730"/>
<rect x="-0.5" y="0.5" width="1" height="1" transform="matrix(-1 0 0 1 454.5 110)" stroke="#C05730"/>
<rect x="-0.5" y="0.5" width="1" height="1" transform="matrix(-1 0 0 1 452.5 108)" stroke="#C05730"/>
<rect x="-0.5" y="0.5" width="1" height="1" transform="matrix(-1 0 0 1 450.5 106)" stroke="#C05730"/>
<rect x="-0.5" y="0.5" width="1" height="1" transform="matrix(-1 0 0 1 448.5 104)" stroke="#C05730"/>
<rect x="-0.5" y="0.5" width="1" height="1" transform="matrix(-1 0 0 1 446.5 102)" stroke="#C05730"/>
<rect x="-0.5" y="0.5" width="1" height="1" transform="matrix(-1 0 0 1 478.5 134)" stroke="#C05730"/>
<rect x="320" y="136.5" width="155" height="1" stroke="white"/>
<rect x="476" y="138.5" width="1" height="1" stroke="white"/>
<rect x="-0.5" y="0.5" width="1" height="1" transform="matrix(-1 0 0 1 480.5 136)" stroke="#C05730"/>
<line x1="148.5" y1="33" x2="332.5" y2="33" stroke="#FFD700" stroke-width="2"/>
<line x1="180.5" y1="1" x2="300.5" y2="1" stroke="#FFD700" stroke-width="2"/>
<line x1="145.487" y1="37.8414" x2="167.487" y2="174.841" stroke="#FFD700" stroke-width="2"/>
<line y1="-1" x2="138.755" y2="-1" transform="matrix(-0.158553 0.987351 0.987351 0.158553 336.5 38)" stroke="#FFD700" stroke-width="2"/>
<rect x="147" y="34.5" width="1" height="1" stroke="#FFD700"/>
<rect x="151" y="30.5" width="1" height="1" stroke="#FFD700"/>
<rect x="153" y="28.5" width="1" height="1" stroke="#FFD700"/>
<rect x="155" y="26.5" width="1" height="1" stroke="#FFD700"/>
<rect x="157" y="24.5" width="1" height="1" stroke="#FFD700"/>
<rect x="159" y="22.5" width="1" height="1" stroke="#FFD700"/>
<rect x="161" y="20.5" width="1" height="1" stroke="#FFD700"/>
<rect x="163" y="18.5" width="1" height="1" stroke="#FFD700"/>
<rect x="165" y="16.5" width="1" height="1" stroke="#FFD700"/>
<rect x="167" y="14.5" width="1" height="1" stroke="#FFD700"/>
<rect x="169" y="12.5" width="1" height="1" stroke="#FFD700"/>
<rect x="171" y="10.5" width="1" height="1" stroke="#FFD700"/>
<rect x="173" y="8.5" width="1" height="1" stroke="#FFD700"/>
<rect x="175" y="6.5" width="1" height="1" stroke="#FFD700"/>
<rect x="177" y="4.5" width="1" height="1" stroke="#FFD700"/>
<rect x="179" y="2.5" width="1" height="1" stroke="#FFD700"/>
<rect x="-0.5" y="0.5" width="1" height="1" transform="matrix(-1 0 0 1 329.5 30)" stroke="#FFD700"/>
<rect x="-0.5" y="0.5" width="1" height="1" transform="matrix(-1 0 0 1 327.5 28)" stroke="#FFD700"/>
<rect x="-0.5" y="0.5" width="1" height="1" transform="matrix(-1 0 0 1 325.5 26)" stroke="#FFD700"/>
<rect x="-0.5" y="0.5" width="1" height="1" transform="matrix(-1 0 0 1 323.5 24)" stroke="#FFD700"/>
<rect x="-0.5" y="0.5" width="1" height="1" transform="matrix(-1 0 0 1 321.5 22)" stroke="#FFD700"/>
<rect x="-0.5" y="0.5" width="1" height="1" transform="matrix(-1 0 0 1 319.5 20)" stroke="#FFD700"/>
<rect x="-0.5" y="0.5" width="1" height="1" transform="matrix(-1 0 0 1 317.5 18)" stroke="#FFD700"/>
<rect x="-0.5" y="0.5" width="1" height="1" transform="matrix(-1 0 0 1 315.5 16)" stroke="#FFD700"/>
<rect x="-0.5" y="0.5" width="1" height="1" transform="matrix(-1 0 0 1 313.5 14)" stroke="#FFD700"/>
<rect x="-0.5" y="0.5" width="1" height="1" transform="matrix(-1 0 0 1 311.5 12)" stroke="#FFD700"/>
<rect x="-0.5" y="0.5" width="1" height="1" transform="matrix(-1 0 0 1 309.5 10)" stroke="#FFD700"/>
<rect x="-0.5" y="0.5" width="1" height="1" transform="matrix(-1 0 0 1 307.5 8)" stroke="#FFD700"/>
<rect x="-0.5" y="0.5" width="1" height="1" transform="matrix(-1 0 0 1 305.5 6)" stroke="#FFD700"/>
<rect x="-0.5" y="0.5" width="1" height="1" transform="matrix(-1 0 0 1 303.5 4)" stroke="#FFD700"/>
<rect x="-0.5" y="0.5" width="1" height="1" transform="matrix(-1 0 0 1 301.5 2)" stroke="#FFD700"/>
<rect x="181" y="0.5" width="1" height="1" stroke="#FFD700"/>
<rect x="-0.5" y="0.5" width="1" height="1" transform="matrix(-1 0 0 1 333.5 34)" stroke="#FFD700"/>
<rect x="145" y="36.5" width="1" height="1" stroke="#FFD700"/>
<rect x="149" y="38.5" width="1" height="1" stroke="white"/>
<rect x="331" y="38.5" width="1" height="1" stroke="white"/>
<rect x="151" y="36.5" width="179" height="1" stroke="white"/>
<rect x="-0.5" y="0.5" width="1" height="1" transform="matrix(-1 0 0 1 335.5 36)" stroke="#FFD700"/>
</g>
<defs>
<clipPath id="clip0_60_217">
<rect width="481" height="175" fill="white" transform="translate(0.5)"/>
</clipPath>
</defs>
</svg>
