<?xml version="1.0" encoding="UTF-8"?>
<svg id="Layer_1" xmlns="http://www.w3.org/2000/svg" xmlns:xlink="http://www.w3.org/1999/xlink" version="1.1" viewBox="0 0 500 800">
  <!-- Generator: Adobe Illustrator 30.0.0, SVG Export Plug-In . SVG Version: 2.1.1 Build 123)  -->
  <defs>
    <style>
      .st0 {
        fill: none;
      }

      .st1 {
        fill: #e84242;
      }

      .st2 {
        fill: url(#New_Pattern_2);
      }

      .st2, .st3 {
        isolation: isolate;
      }

      .st4 {
        fill: #fff;
        fill-rule: evenodd;
      }
    </style>
    <pattern id="New_Pattern_2" data-name="New Pattern 2" x="0" y="0" width="187.5" height="125" patternTransform="translate(0 17184)" patternUnits="userSpaceOnUse" viewBox="0 0 187.5 125">
      <g>
        <rect class="st0" width="187.5" height="125"/>
        <g>
          <rect class="st0" width="187.5" height="125"/>
          <g>
            <rect class="st0" width="187.5" height="125"/>
            <path class="st4" d="M197.67,118.58c-.25,1.04-.81,2.04-1.94,4.02l-12.74,22.53-.03.06c-1.12,1.96-1.69,2.96-2.48,3.71-.86.82-1.89,1.42-3.02,1.75-1.03.29-2.19.29-4.5.29h-9.83c-2.06,0-3.08,0-3.71-.4-.67-.44-1.08-1.16-1.13-1.95-.04-.73.47-1.63,1.49-3.42l24.26-42.76c1.03-1.82,1.55-2.72,2.21-3.06.71-.36,1.55-.36,2.26,0,.66.34,1.18,1.24,2.21,3.06l4.99,8.71.02.04c1.12,1.95,1.68,2.94,1.93,3.97.27,1.13.27,2.33,0,3.46h.01Z"/>
            <path class="st4" d="M10.17,118.58c-.25,1.04-.81,2.04-1.94,4.02l-12.74,22.53-.03.06c-1.12,1.96-1.69,2.96-2.48,3.71-.86.82-1.89,1.42-3.02,1.75-1.03.29-2.19.29-4.5.29h-9.83c-2.06,0-3.08,0-3.71-.4-.67-.44-1.08-1.16-1.13-1.95-.04-.73.47-1.63,1.49-3.42L-3.46,102.4c1.03-1.82,1.55-2.72,2.21-3.06.71-.36,1.55-.36,2.26,0,.66.34,1.18,1.24,2.21,3.06l4.99,8.71.02.04c1.12,1.95,1.68,2.94,1.93,3.97.27,1.13.27,2.33,0,3.46h0Z"/>
            <path class="st4" d="M197.67-6.42c-.25,1.04-.81,2.04-1.94,4.02l-12.74,22.53-.03.06c-1.12,1.96-1.69,2.96-2.48,3.71-.86.82-1.89,1.42-3.02,1.75-1.03.29-2.19.29-4.5.29h-9.83c-2.06,0-3.08,0-3.71-.4-.67-.44-1.08-1.16-1.13-1.95-.04-.73.47-1.63,1.49-3.42l24.26-42.76c1.03-1.82,1.55-2.72,2.21-3.06.71-.36,1.55-.36,2.26,0,.66.34,1.18,1.24,2.21,3.06l4.99,8.71.02.04c1.12,1.95,1.68,2.94,1.93,3.97.27,1.13.27,2.33,0,3.46h.01Z"/>
            <g>
              <path class="st4" d="M122.97,86.06c-.04.8-.46,1.53-1.13,1.97-.62.41-1.67.41-3.74.41h-14.08c-2.08,0-3.12,0-3.73-.4-.67-.44-1.08-1.17-1.13-1.97-.04-.73.48-1.62,1.51-3.39l.02-.04,7.03-12.06c1.03-1.78,1.55-2.66,2.2-3,.71-.36,1.54-.36,2.25,0,.64.33,1.14,1.17,2.13,2.85l.08.14,7.05,12.06c.03.06.07.12.1.18.98,1.69,1.48,2.55,1.44,3.26h0Z"/>
              <path class="st4" d="M103.92,56.08c-.25,1.04-.81,2.04-1.94,4.02l-12.74,22.53-.03.06c-1.12,1.96-1.69,2.96-2.48,3.71-.86.82-1.89,1.42-3.02,1.75-1.03.29-2.19.29-4.5.29h-9.83c-2.06,0-3.08,0-3.71-.4-.67-.44-1.08-1.16-1.13-1.95-.04-.73.47-1.63,1.49-3.42l24.26-42.76c1.03-1.82,1.55-2.72,2.21-3.06.71-.36,1.55-.36,2.26,0,.66.34,1.18,1.24,2.21,3.06l4.99,8.71.02.04c1.12,1.95,1.68,2.94,1.93,3.97.27,1.13.27,2.33,0,3.46h.01Z"/>
            </g>
            <g>
              <path class="st4" d="M29.22,23.56c-.04.8-.46,1.53-1.13,1.97-.62.41-1.67.41-3.74.41h-14.08c-2.08,0-3.12,0-3.73-.4-.67-.44-1.08-1.17-1.13-1.97-.04-.73.48-1.62,1.51-3.39l.02-.04,7.03-12.06c1.03-1.78,1.55-2.66,2.2-3,.71-.36,1.54-.36,2.25,0,.64.33,1.14,1.17,2.13,2.85l.08.14,7.05,12.06c.03.06.07.12.1.18.98,1.69,1.48,2.55,1.44,3.26h0Z"/>
              <path class="st4" d="M10.17-6.42c-.25,1.04-.81,2.04-1.94,4.02L-4.52,20.12l-.03.06c-1.12,1.96-1.69,2.96-2.48,3.71-.86.82-1.89,1.42-3.02,1.75-1.03.29-2.19.29-4.5.29h-9.83c-2.06,0-3.08,0-3.71-.4-.67-.44-1.08-1.16-1.13-1.95-.04-.73.47-1.63,1.49-3.42L-3.46-22.6c1.03-1.82,1.55-2.72,2.21-3.06.71-.36,1.55-.36,2.26,0,.66.34,1.18,1.24,2.21,3.06l4.99,8.71.02.04c1.12,1.95,1.68,2.94,1.93,3.97.27,1.13.27,2.33,0,3.46h0Z"/>
            </g>
          </g>
        </g>
      </g>
    </pattern>
  </defs>
  <g class="st3">
    <g id="Layer_11" data-name="Layer_1">
      <rect class="st1" width="500" height="800"/>
      <rect class="st2" width="500" height="800"/>
    </g>
  </g>
</svg>