<?xml version="1.0" encoding="UTF-8"?>
<svg id="Layer_1" xmlns="http://www.w3.org/2000/svg" version="1.1" viewBox="0 0 500 800">
  <!-- Generator: Adobe Illustrator 30.0.0, SVG Export Plug-In . SVG Version: 2.1.1 Build 123)  -->
  <defs>
    <style>
      .st0 {
        fill: #e84242;
      }

      .st1 {
        isolation: isolate;
      }

      .st2 {
        fill: #fff;
      }
    </style>
  </defs>
  <g class="st1">
    <g id="Layer_11">
      <g>
        <rect class="st0" width="500" height="800"/>
        <g>
          <g>
            <path class="st2" d="M448.47,99.91c5.64-1.08,10.29-1.8,13.95-2.16s6.55-.53,8.67-.51c2.12.02,4.02.21,5.7.57,1.64.76,2.98,1.51,4.02,2.25,1.04.74,2.03,1.68,2.97,2.82s1.52,2.46,1.74,3.96-.08,3.19-.9,5.07-2.45,3.96-4.89,6.24c3.36,1.76,5.75,3.65,7.17,5.67s2.2,4.01,2.34,5.97c.14,1.96-.16,3.84-.9,5.64s-1.6,3.38-2.58,4.74c-.98,1.36-2.29,2.86-3.93,4.5-.04.04-.31.21-.81.51s-1.48.66-2.94,1.08-3.41.77-5.85,1.05-5.6.41-9.48.39-8.5-.33-13.86-.93l-.42-46.86h0ZM473.16,129.61c-.06-.4-.24-.87-.54-1.41-.3-.54-.79-.97-1.47-1.29s-1.63-.42-2.85-.3-2.79.64-4.71,1.56l.78,6.3c2.2.2,3.91.1,5.13-.3,1.22-.4,2.1-.89,2.64-1.47s.91-1.39,1.11-2.43c0-.04-.03-.26-.09-.66ZM469.68,111.34c-.3-.42-.85-.7-1.65-.84s-2,.11-3.6.75l-.24,6.3c1.24.2,2.25.09,3.03-.33s1.38-.92,1.8-1.5c.42-.58.77-1.37,1.05-2.37.04-.92-.09-1.59-.39-2.01h0Z"/>
            <path class="st2" d="M470.07,202.69h-.12c-1.08,1.52-2.45,2.58-4.11,3.18-1.66.6-3.45.9-5.37.9-1.6,0-3.12-.29-4.56-.87s-2.7-1.41-3.78-2.49-1.94-2.38-2.58-3.9c-.64-1.52-.96-3.22-.96-5.1,0-1.64.32-3.15.96-4.53.64-1.38,1.51-2.58,2.61-3.6,1.1-1.02,2.4-1.82,3.9-2.4s3.13-.87,4.89-.87,3.39.27,4.65.81c1.26.54,2.33,1.15,3.21,1.83v-1.8c0-1.84-.6-3.06-1.8-3.66s-2.76-.9-4.68-.9c-1.76,0-3.4.18-4.92.54-1.52.36-3.06.78-4.62,1.26l2.34-9.54c1.92-.56,3.92-.95,6-1.17s4.2-.33,6.36-.33c1.96,0,3.88.23,5.76.69s3.53,1.21,4.95,2.25,2.55,2.38,3.39,4.02c.84,1.64,1.24,3.66,1.2,6.06l-.66,22.68-12.06,1.02v-4.08h0ZM462.45,191.59c-1.36.2-2.48.67-3.36,1.41-.88.74-1.26,1.57-1.14,2.49.16.92.73,1.61,1.71,2.07.98.46,2.25.57,3.81.33s2.72-.74,3.48-1.5,1.06-1.58.9-2.46c-.12-.76-.63-1.41-1.53-1.95s-2.19-.67-3.87-.39h0Z"/>
            <path class="st2" d="M470.07,262.69h-.12c-1.08,1.52-2.45,2.58-4.11,3.18-1.66.6-3.45.9-5.37.9-1.6,0-3.12-.29-4.56-.87s-2.7-1.41-3.78-2.49-1.94-2.38-2.58-3.9c-.64-1.52-.96-3.22-.96-5.1,0-1.64.32-3.15.96-4.53.64-1.38,1.51-2.58,2.61-3.6,1.1-1.02,2.4-1.82,3.9-2.4s3.13-.87,4.89-.87,3.39.27,4.65.81c1.26.54,2.33,1.15,3.21,1.83v-1.8c0-1.84-.6-3.06-1.8-3.66s-2.76-.9-4.68-.9c-1.76,0-3.4.18-4.92.54-1.52.36-3.06.78-4.62,1.26l2.34-9.54c1.92-.56,3.92-.95,6-1.17s4.2-.33,6.36-.33c1.96,0,3.88.23,5.76.69s3.53,1.21,4.95,2.25,2.55,2.38,3.39,4.02c.84,1.64,1.24,3.66,1.2,6.06l-.66,22.68-12.06,1.02v-4.08h0ZM462.45,251.59c-1.36.2-2.48.67-3.36,1.41-.88.74-1.26,1.57-1.14,2.49.16.92.73,1.61,1.71,2.07.98.46,2.25.57,3.81.33s2.72-.74,3.48-1.5,1.06-1.58.9-2.46c-.12-.76-.63-1.41-1.53-1.95s-2.19-.67-3.87-.39h0Z"/>
            <path class="st2" d="M470.07,322.69h-.12c-1.08,1.52-2.45,2.58-4.11,3.18-1.66.6-3.45.9-5.37.9-1.6,0-3.12-.29-4.56-.87s-2.7-1.41-3.78-2.49-1.94-2.38-2.58-3.9c-.64-1.52-.96-3.22-.96-5.1,0-1.64.32-3.15.96-4.53.64-1.38,1.51-2.58,2.61-3.6,1.1-1.02,2.4-1.82,3.9-2.4s3.13-.87,4.89-.87,3.39.27,4.65.81c1.26.54,2.33,1.15,3.21,1.83v-1.8c0-1.84-.6-3.06-1.8-3.66s-2.76-.9-4.68-.9c-1.76,0-3.4.18-4.92.54-1.52.36-3.06.78-4.62,1.26l2.34-9.54c1.92-.56,3.92-.95,6-1.17s4.2-.33,6.36-.33c1.96,0,3.88.23,5.76.69s3.53,1.21,4.95,2.25,2.55,2.38,3.39,4.02c.84,1.64,1.24,3.66,1.2,6.06l-.66,22.68-12.06,1.02v-4.08h0ZM462.45,311.59c-1.36.2-2.48.67-3.36,1.41-.88.74-1.26,1.57-1.14,2.49.16.92.73,1.61,1.71,2.07.98.46,2.25.57,3.81.33s2.72-.74,3.48-1.5,1.06-1.58.9-2.46c-.12-.76-.63-1.41-1.53-1.95s-2.19-.67-3.87-.39h0Z"/>
            <path class="st2" d="M470.07,382.69h-.12c-1.08,1.52-2.45,2.58-4.11,3.18-1.66.6-3.45.9-5.37.9-1.6,0-3.12-.29-4.56-.87s-2.7-1.41-3.78-2.49-1.94-2.38-2.58-3.9c-.64-1.52-.96-3.22-.96-5.1,0-1.64.32-3.15.96-4.53.64-1.38,1.51-2.58,2.61-3.6,1.1-1.02,2.4-1.82,3.9-2.4s3.13-.87,4.89-.87,3.39.27,4.65.81c1.26.54,2.33,1.15,3.21,1.83v-1.8c0-1.84-.6-3.06-1.8-3.66s-2.76-.9-4.68-.9c-1.76,0-3.4.18-4.92.54-1.52.36-3.06.78-4.62,1.26l2.34-9.54c1.92-.56,3.92-.95,6-1.17s4.2-.33,6.36-.33c1.96,0,3.88.23,5.76.69s3.53,1.21,4.95,2.25,2.55,2.38,3.39,4.02c.84,1.64,1.24,3.66,1.2,6.06l-.66,22.68-12.06,1.02v-4.08h0ZM462.45,371.59c-1.36.2-2.48.67-3.36,1.41-.88.74-1.26,1.57-1.14,2.49.16.92.73,1.61,1.71,2.07.98.46,2.25.57,3.81.33,1.56-.24,2.72-.74,3.48-1.5s1.06-1.58.9-2.46c-.12-.76-.63-1.41-1.53-1.95s-2.19-.67-3.87-.39h0Z"/>
            <path class="st2" d="M470.07,442.69h-.12c-1.08,1.52-2.45,2.58-4.11,3.18-1.66.6-3.45.9-5.37.9-1.6,0-3.12-.29-4.56-.87s-2.7-1.41-3.78-2.49-1.94-2.38-2.58-3.9c-.64-1.52-.96-3.22-.96-5.1,0-1.64.32-3.15.96-4.53.64-1.38,1.51-2.58,2.61-3.6,1.1-1.02,2.4-1.82,3.9-2.4s3.13-.87,4.89-.87,3.39.27,4.65.81c1.26.54,2.33,1.15,3.21,1.83v-1.8c0-1.84-.6-3.06-1.8-3.66s-2.76-.9-4.68-.9c-1.76,0-3.4.18-4.92.54-1.52.36-3.06.78-4.62,1.26l2.34-9.54c1.92-.56,3.92-.95,6-1.17s4.2-.33,6.36-.33c1.96,0,3.88.23,5.76.69s3.53,1.21,4.95,2.25,2.55,2.38,3.39,4.02c.84,1.64,1.24,3.66,1.2,6.06l-.66,22.68-12.06,1.02v-4.08h0ZM462.45,431.59c-1.36.2-2.48.67-3.36,1.41-.88.74-1.26,1.57-1.14,2.49.16.92.73,1.61,1.71,2.07.98.46,2.25.57,3.81.33,1.56-.24,2.72-.74,3.48-1.5s1.06-1.58.9-2.46c-.12-.76-.63-1.41-1.53-1.95s-2.19-.67-3.87-.39h0Z"/>
            <path class="st2" d="M470.07,502.69h-.12c-1.08,1.52-2.45,2.58-4.11,3.18-1.66.6-3.45.9-5.37.9-1.6,0-3.12-.29-4.56-.87s-2.7-1.41-3.78-2.49-1.94-2.38-2.58-3.9c-.64-1.52-.96-3.22-.96-5.1,0-1.64.32-3.15.96-4.53.64-1.38,1.51-2.58,2.61-3.6,1.1-1.02,2.4-1.82,3.9-2.4s3.13-.87,4.89-.87,3.39.27,4.65.81c1.26.54,2.33,1.15,3.21,1.83v-1.8c0-1.84-.6-3.06-1.8-3.66s-2.76-.9-4.68-.9c-1.76,0-3.4.18-4.92.54-1.52.36-3.06.78-4.62,1.26l2.34-9.54c1.92-.56,3.92-.95,6-1.17s4.2-.33,6.36-.33c1.96,0,3.88.23,5.76.69s3.53,1.21,4.95,2.25,2.55,2.38,3.39,4.02c.84,1.64,1.24,3.66,1.2,6.06l-.66,22.68-12.06,1.02v-4.08h0ZM462.45,491.59c-1.36.2-2.48.67-3.36,1.41s-1.26,1.57-1.14,2.49c.16.92.73,1.61,1.71,2.07.98.46,2.25.57,3.81.33,1.56-.24,2.72-.74,3.48-1.5s1.06-1.58.9-2.46c-.12-.76-.63-1.41-1.53-1.95s-2.19-.67-3.87-.39h0Z"/>
            <path class="st2" d="M470.07,562.69h-.12c-1.08,1.52-2.45,2.58-4.11,3.18-1.66.6-3.45.9-5.37.9-1.6,0-3.12-.29-4.56-.87s-2.7-1.41-3.78-2.49-1.94-2.38-2.58-3.9c-.64-1.52-.96-3.22-.96-5.1,0-1.64.32-3.15.96-4.53s1.51-2.58,2.61-3.6c1.1-1.02,2.4-1.82,3.9-2.4s3.13-.87,4.89-.87,3.39.27,4.65.81c1.26.54,2.33,1.15,3.21,1.83v-1.8c0-1.84-.6-3.06-1.8-3.66s-2.76-.9-4.68-.9c-1.76,0-3.4.18-4.92.54-1.52.36-3.06.78-4.62,1.26l2.34-9.54c1.92-.56,3.92-.95,6-1.17s4.2-.33,6.36-.33c1.96,0,3.88.23,5.76.69s3.53,1.21,4.95,2.25,2.55,2.38,3.39,4.02c.84,1.64,1.24,3.66,1.2,6.06l-.66,22.68-12.06,1.02v-4.08h0ZM462.45,551.59c-1.36.2-2.48.67-3.36,1.41s-1.26,1.57-1.14,2.49c.16.92.73,1.61,1.71,2.07.98.46,2.25.57,3.81.33s2.72-.74,3.48-1.5,1.06-1.58.9-2.46c-.12-.76-.63-1.41-1.53-1.95s-2.19-.67-3.87-.39h0Z"/>
            <path class="st2" d="M470.07,622.69h-.12c-1.08,1.52-2.45,2.58-4.11,3.18-1.66.6-3.45.9-5.37.9-1.6,0-3.12-.29-4.56-.87s-2.7-1.41-3.78-2.49-1.94-2.38-2.58-3.9c-.64-1.52-.96-3.22-.96-5.1,0-1.64.32-3.15.96-4.53s1.51-2.58,2.61-3.6c1.1-1.02,2.4-1.82,3.9-2.4s3.13-.87,4.89-.87,3.39.27,4.65.81c1.26.54,2.33,1.15,3.21,1.83v-1.8c0-1.84-.6-3.06-1.8-3.66s-2.76-.9-4.68-.9c-1.76,0-3.4.18-4.92.54-1.52.36-3.06.78-4.62,1.26l2.34-9.54c1.92-.56,3.92-.95,6-1.17s4.2-.33,6.36-.33c1.96,0,3.88.23,5.76.69s3.53,1.21,4.95,2.25,2.55,2.38,3.39,4.02c.84,1.64,1.24,3.66,1.2,6.06l-.66,22.68-12.06,1.02v-4.08h0ZM462.45,611.59c-1.36.2-2.48.67-3.36,1.41s-1.26,1.57-1.14,2.49c.16.92.73,1.61,1.71,2.07.98.46,2.25.57,3.81.33s2.72-.74,3.48-1.5,1.06-1.58.9-2.46c-.12-.76-.63-1.41-1.53-1.95-.9-.54-2.19-.67-3.87-.39h0Z"/>
            <path class="st2" d="M470.07,682.69h-.12c-1.08,1.52-2.45,2.58-4.11,3.18-1.66.6-3.45.9-5.37.9-1.6,0-3.12-.29-4.56-.87s-2.7-1.41-3.78-2.49-1.94-2.38-2.58-3.9c-.64-1.52-.96-3.22-.96-5.1,0-1.64.32-3.15.96-4.53s1.51-2.58,2.61-3.6c1.1-1.02,2.4-1.82,3.9-2.4s3.13-.87,4.89-.87,3.39.27,4.65.81c1.26.54,2.33,1.15,3.21,1.83v-1.8c0-1.84-.6-3.06-1.8-3.66s-2.76-.9-4.68-.9c-1.76,0-3.4.18-4.92.54-1.52.36-3.06.78-4.62,1.26l2.34-9.54c1.92-.56,3.92-.95,6-1.17s4.2-.33,6.36-.33c1.96,0,3.88.23,5.76.69s3.53,1.21,4.95,2.25,2.55,2.38,3.39,4.02c.84,1.64,1.24,3.66,1.2,6.06l-.66,22.68-12.06,1.02v-4.08h0ZM462.45,671.59c-1.36.2-2.48.67-3.36,1.41s-1.26,1.57-1.14,2.49c.16.92.73,1.61,1.71,2.07.98.46,2.25.57,3.81.33s2.72-.74,3.48-1.5,1.06-1.58.9-2.46c-.12-.76-.63-1.41-1.53-1.95-.9-.54-2.19-.67-3.87-.39h0Z"/>
            <path class="st2" d="M470.07,742.69h-.12c-1.08,1.52-2.45,2.58-4.11,3.18-1.66.6-3.45.9-5.37.9-1.6,0-3.12-.29-4.56-.87s-2.7-1.41-3.78-2.49-1.94-2.38-2.58-3.9c-.64-1.52-.96-3.22-.96-5.1,0-1.64.32-3.15.96-4.53s1.51-2.58,2.61-3.6c1.1-1.02,2.4-1.82,3.9-2.4s3.13-.87,4.89-.87,3.39.27,4.65.81c1.26.54,2.33,1.15,3.21,1.83v-1.8c0-1.84-.6-3.06-1.8-3.66s-2.76-.9-4.68-.9c-1.76,0-3.4.18-4.92.54-1.52.36-3.06.78-4.62,1.26l2.34-9.54c1.92-.56,3.92-.95,6-1.17s4.2-.33,6.36-.33c1.96,0,3.88.23,5.76.69s3.53,1.21,4.95,2.25,2.55,2.38,3.39,4.02c.84,1.64,1.24,3.66,1.2,6.06l-.66,22.68-12.06,1.02v-4.08h0ZM462.45,731.59c-1.36.2-2.48.67-3.36,1.41s-1.26,1.57-1.14,2.49c.16.92.73,1.61,1.71,2.07.98.46,2.25.57,3.81.33s2.72-.74,3.48-1.5,1.06-1.58.9-2.46c-.12-.76-.63-1.41-1.53-1.95-.9-.54-2.19-.67-3.87-.39h0Z"/>
            <path class="st2" d="M470.07,802.69h-.12c-1.08,1.52-2.45,2.58-4.11,3.18-1.66.6-3.45.9-5.37.9-1.6,0-3.12-.29-4.56-.87s-2.7-1.41-3.78-2.49-1.94-2.38-2.58-3.9c-.64-1.52-.96-3.22-.96-5.1,0-1.64.32-3.15.96-4.53s1.51-2.58,2.61-3.6c1.1-1.02,2.4-1.82,3.9-2.4s3.13-.87,4.89-.87,3.39.27,4.65.81c1.26.54,2.33,1.15,3.21,1.83v-1.8c0-1.84-.6-3.06-1.8-3.66s-2.76-.9-4.68-.9c-1.76,0-3.4.18-4.92.54-1.52.36-3.06.78-4.62,1.26l2.34-9.54c1.92-.56,3.92-.95,6-1.17s4.2-.33,6.36-.33c1.96,0,3.88.23,5.76.69s3.53,1.21,4.95,2.25,2.55,2.38,3.39,4.02c.84,1.64,1.24,3.66,1.2,6.06l-.66,22.68-12.06,1.02v-4.08h0ZM462.45,791.59c-1.36.2-2.48.67-3.36,1.41s-1.26,1.57-1.14,2.49c.16.92.73,1.61,1.71,2.07.98.46,2.25.57,3.81.33s2.72-.74,3.48-1.5,1.06-1.58.9-2.46c-.12-.76-.63-1.41-1.53-1.95-.9-.54-2.19-.67-3.87-.39h0Z"/>
            <path class="st2" d="M470.07,862.69h-.12c-1.08,1.52-2.45,2.58-4.11,3.18-1.66.6-3.45.9-5.37.9-1.6,0-3.12-.29-4.56-.87s-2.7-1.41-3.78-2.49-1.94-2.38-2.58-3.9c-.64-1.52-.96-3.22-.96-5.1,0-1.64.32-3.15.96-4.53s1.51-2.58,2.61-3.6c1.1-1.02,2.4-1.82,3.9-2.4s3.13-.87,4.89-.87,3.39.27,4.65.81c1.26.54,2.33,1.15,3.21,1.83v-1.8c0-1.84-.6-3.06-1.8-3.66s-2.76-.9-4.68-.9c-1.76,0-3.4.18-4.92.54-1.52.36-3.06.78-4.62,1.26l2.34-9.54c1.92-.56,3.92-.95,6-1.17s4.2-.33,6.36-.33c1.96,0,3.88.23,5.76.69s3.53,1.21,4.95,2.25,2.55,2.38,3.39,4.02c.84,1.64,1.24,3.66,1.2,6.06l-.66,22.68-12.06,1.02v-4.08h0ZM462.45,851.59c-1.36.2-2.48.67-3.36,1.41s-1.26,1.57-1.14,2.49c.16.92.73,1.61,1.71,2.07.98.46,2.25.57,3.81.33s2.72-.74,3.48-1.5,1.06-1.58.9-2.46c-.12-.76-.63-1.41-1.53-1.95-.9-.54-2.19-.67-3.87-.39h0Z"/>
          </g>
          <g>
            <path class="st2" d="M393.75,109.91c5.64-1.08,10.29-1.8,13.95-2.16s6.55-.53,8.67-.51c2.12.02,4.02.21,5.7.57,1.64.76,2.98,1.51,4.02,2.25,1.04.74,2.03,1.68,2.97,2.82s1.52,2.46,1.74,3.96-.08,3.19-.9,5.07-2.45,3.96-4.89,6.24c3.36,1.76,5.75,3.65,7.17,5.67s2.2,4.01,2.34,5.97c.14,1.96-.16,3.84-.9,5.64s-1.6,3.38-2.58,4.74c-.98,1.36-2.29,2.86-3.93,4.5-.04.04-.31.21-.81.51s-1.48.66-2.94,1.08-3.41.77-5.85,1.05-5.6.41-9.48.39-8.5-.33-13.86-.93l-.42-46.86h0ZM418.44,139.61c-.06-.4-.24-.87-.54-1.41-.3-.54-.79-.97-1.47-1.29s-1.63-.42-2.85-.3-2.79.64-4.71,1.56l.78,6.3c2.2.2,3.91.1,5.13-.3,1.22-.4,2.1-.89,2.64-1.47s.91-1.39,1.11-2.43c0-.04-.03-.26-.09-.66ZM414.96,121.34c-.3-.42-.85-.7-1.65-.84s-2,.11-3.6.75l-.24,6.3c1.24.2,2.25.09,3.03-.33s1.38-.92,1.8-1.5c.42-.58.77-1.37,1.05-2.37.04-.92-.09-1.59-.39-2.01h0Z"/>
            <path class="st2" d="M415.35,212.69h-.12c-1.08,1.52-2.45,2.58-4.11,3.18-1.66.6-3.45.9-5.37.9-1.6,0-3.12-.29-4.56-.87s-2.7-1.41-3.78-2.49-1.94-2.38-2.58-3.9c-.64-1.52-.96-3.22-.96-5.1,0-1.64.32-3.15.96-4.53.64-1.38,1.51-2.58,2.61-3.6,1.1-1.02,2.4-1.82,3.9-2.4s3.13-.87,4.89-.87,3.39.27,4.65.81c1.26.54,2.33,1.15,3.21,1.83v-1.8c0-1.84-.6-3.06-1.8-3.66s-2.76-.9-4.68-.9c-1.76,0-3.4.18-4.92.54-1.52.36-3.06.78-4.62,1.26l2.34-9.54c1.92-.56,3.92-.95,6-1.17s4.2-.33,6.36-.33c1.96,0,3.88.23,5.76.69s3.53,1.21,4.95,2.25,2.55,2.38,3.39,4.02c.84,1.64,1.24,3.66,1.2,6.06l-.66,22.68-12.06,1.02v-4.08h0ZM407.73,201.59c-1.36.2-2.48.67-3.36,1.41-.88.74-1.26,1.57-1.14,2.49.16.92.73,1.61,1.71,2.07.98.46,2.25.57,3.81.33s2.72-.74,3.48-1.5,1.06-1.58.9-2.46c-.12-.76-.63-1.41-1.53-1.95s-2.19-.67-3.87-.39h0Z"/>
            <path class="st2" d="M415.35,272.69h-.12c-1.08,1.52-2.45,2.58-4.11,3.18-1.66.6-3.45.9-5.37.9-1.6,0-3.12-.29-4.56-.87s-2.7-1.41-3.78-2.49-1.94-2.38-2.58-3.9c-.64-1.52-.96-3.22-.96-5.1,0-1.64.32-3.15.96-4.53.64-1.38,1.51-2.58,2.61-3.6,1.1-1.02,2.4-1.82,3.9-2.4s3.13-.87,4.89-.87,3.39.27,4.65.81c1.26.54,2.33,1.15,3.21,1.83v-1.8c0-1.84-.6-3.06-1.8-3.66s-2.76-.9-4.68-.9c-1.76,0-3.4.18-4.92.54-1.52.36-3.06.78-4.62,1.26l2.34-9.54c1.92-.56,3.92-.95,6-1.17s4.2-.33,6.36-.33c1.96,0,3.88.23,5.76.69s3.53,1.21,4.95,2.25,2.55,2.38,3.39,4.02c.84,1.64,1.24,3.66,1.2,6.06l-.66,22.68-12.06,1.02v-4.08h0ZM407.73,261.59c-1.36.2-2.48.67-3.36,1.41-.88.74-1.26,1.57-1.14,2.49.16.92.73,1.61,1.71,2.07.98.46,2.25.57,3.81.33s2.72-.74,3.48-1.5,1.06-1.58.9-2.46c-.12-.76-.63-1.41-1.53-1.95s-2.19-.67-3.87-.39h0Z"/>
            <path class="st2" d="M415.35,332.69h-.12c-1.08,1.52-2.45,2.58-4.11,3.18-1.66.6-3.45.9-5.37.9-1.6,0-3.12-.29-4.56-.87s-2.7-1.41-3.78-2.49-1.94-2.38-2.58-3.9c-.64-1.52-.96-3.22-.96-5.1,0-1.64.32-3.15.96-4.53.64-1.38,1.51-2.58,2.61-3.6,1.1-1.02,2.4-1.82,3.9-2.4s3.13-.87,4.89-.87,3.39.27,4.65.81c1.26.54,2.33,1.15,3.21,1.83v-1.8c0-1.84-.6-3.06-1.8-3.66s-2.76-.9-4.68-.9c-1.76,0-3.4.18-4.92.54-1.52.36-3.06.78-4.62,1.26l2.34-9.54c1.92-.56,3.92-.95,6-1.17s4.2-.33,6.36-.33c1.96,0,3.88.23,5.76.69s3.53,1.21,4.95,2.25,2.55,2.38,3.39,4.02c.84,1.64,1.24,3.66,1.2,6.06l-.66,22.68-12.06,1.02v-4.08h0ZM407.73,321.59c-1.36.2-2.48.67-3.36,1.41-.88.74-1.26,1.57-1.14,2.49.16.92.73,1.61,1.71,2.07.98.46,2.25.57,3.81.33s2.72-.74,3.48-1.5,1.06-1.58.9-2.46c-.12-.76-.63-1.41-1.53-1.95s-2.19-.67-3.87-.39h0Z"/>
            <path class="st2" d="M415.35,392.69h-.12c-1.08,1.52-2.45,2.58-4.11,3.18-1.66.6-3.45.9-5.37.9-1.6,0-3.12-.29-4.56-.87s-2.7-1.41-3.78-2.49-1.94-2.38-2.58-3.9c-.64-1.52-.96-3.22-.96-5.1,0-1.64.32-3.15.96-4.53.64-1.38,1.51-2.58,2.61-3.6,1.1-1.02,2.4-1.82,3.9-2.4s3.13-.87,4.89-.87,3.39.27,4.65.81c1.26.54,2.33,1.15,3.21,1.83v-1.8c0-1.84-.6-3.06-1.8-3.66s-2.76-.9-4.68-.9c-1.76,0-3.4.18-4.92.54-1.52.36-3.06.78-4.62,1.26l2.34-9.54c1.92-.56,3.92-.95,6-1.17s4.2-.33,6.36-.33c1.96,0,3.88.23,5.76.69s3.53,1.21,4.95,2.25,2.55,2.38,3.39,4.02c.84,1.64,1.24,3.66,1.2,6.06l-.66,22.68-12.06,1.02v-4.08h0ZM407.73,381.59c-1.36.2-2.48.67-3.36,1.41-.88.74-1.26,1.57-1.14,2.49.16.92.73,1.61,1.71,2.07.98.46,2.25.57,3.81.33,1.56-.24,2.72-.74,3.48-1.5s1.06-1.58.9-2.46c-.12-.76-.63-1.41-1.53-1.95s-2.19-.67-3.87-.39h0Z"/>
            <path class="st2" d="M415.35,452.69h-.12c-1.08,1.52-2.45,2.58-4.11,3.18-1.66.6-3.45.9-5.37.9-1.6,0-3.12-.29-4.56-.87s-2.7-1.41-3.78-2.49-1.94-2.38-2.58-3.9c-.64-1.52-.96-3.22-.96-5.1,0-1.64.32-3.15.96-4.53.64-1.38,1.51-2.58,2.61-3.6,1.1-1.02,2.4-1.82,3.9-2.4s3.13-.87,4.89-.87,3.39.27,4.65.81c1.26.54,2.33,1.15,3.21,1.83v-1.8c0-1.84-.6-3.06-1.8-3.66s-2.76-.9-4.68-.9c-1.76,0-3.4.18-4.92.54-1.52.36-3.06.78-4.62,1.26l2.34-9.54c1.92-.56,3.92-.95,6-1.17s4.2-.33,6.36-.33c1.96,0,3.88.23,5.76.69s3.53,1.21,4.95,2.25,2.55,2.38,3.39,4.02c.84,1.64,1.24,3.66,1.2,6.06l-.66,22.68-12.06,1.02v-4.08h0ZM407.73,441.59c-1.36.2-2.48.67-3.36,1.41-.88.74-1.26,1.57-1.14,2.49.16.92.73,1.61,1.71,2.07.98.46,2.25.57,3.81.33,1.56-.24,2.72-.74,3.48-1.5s1.06-1.58.9-2.46c-.12-.76-.63-1.41-1.53-1.95s-2.19-.67-3.87-.39h0Z"/>
            <path class="st2" d="M415.35,512.69h-.12c-1.08,1.52-2.45,2.58-4.11,3.18-1.66.6-3.45.9-5.37.9-1.6,0-3.12-.29-4.56-.87s-2.7-1.41-3.78-2.49-1.94-2.38-2.58-3.9c-.64-1.52-.96-3.22-.96-5.1,0-1.64.32-3.15.96-4.53.64-1.38,1.51-2.58,2.61-3.6,1.1-1.02,2.4-1.82,3.9-2.4s3.13-.87,4.89-.87,3.39.27,4.65.81c1.26.54,2.33,1.15,3.21,1.83v-1.8c0-1.84-.6-3.06-1.8-3.66s-2.76-.9-4.68-.9c-1.76,0-3.4.18-4.92.54-1.52.36-3.06.78-4.62,1.26l2.34-9.54c1.92-.56,3.92-.95,6-1.17s4.2-.33,6.36-.33c1.96,0,3.88.23,5.76.69s3.53,1.21,4.95,2.25,2.55,2.38,3.39,4.02c.84,1.64,1.24,3.66,1.2,6.06l-.66,22.68-12.06,1.02v-4.08h0ZM407.73,501.59c-1.36.2-2.48.67-3.36,1.41s-1.26,1.57-1.14,2.49c.16.92.73,1.61,1.71,2.07.98.46,2.25.57,3.81.33s2.72-.74,3.48-1.5,1.06-1.58.9-2.46c-.12-.76-.63-1.41-1.53-1.95s-2.19-.67-3.87-.39h0Z"/>
            <path class="st2" d="M415.35,572.69h-.12c-1.08,1.52-2.45,2.58-4.11,3.18-1.66.6-3.45.9-5.37.9-1.6,0-3.12-.29-4.56-.87s-2.7-1.41-3.78-2.49-1.94-2.38-2.58-3.9c-.64-1.52-.96-3.22-.96-5.1,0-1.64.32-3.15.96-4.53s1.51-2.58,2.61-3.6c1.1-1.02,2.4-1.82,3.9-2.4s3.13-.87,4.89-.87,3.39.27,4.65.81c1.26.54,2.33,1.15,3.21,1.83v-1.8c0-1.84-.6-3.06-1.8-3.66s-2.76-.9-4.68-.9c-1.76,0-3.4.18-4.92.54-1.52.36-3.06.78-4.62,1.26l2.34-9.54c1.92-.56,3.92-.95,6-1.17s4.2-.33,6.36-.33c1.96,0,3.88.23,5.76.69s3.53,1.21,4.95,2.25,2.55,2.38,3.39,4.02c.84,1.64,1.24,3.66,1.2,6.06l-.66,22.68-12.06,1.02v-4.08h0ZM407.73,561.59c-1.36.2-2.48.67-3.36,1.41s-1.26,1.57-1.14,2.49c.16.92.73,1.61,1.71,2.07.98.46,2.25.57,3.81.33s2.72-.74,3.48-1.5,1.06-1.58.9-2.46c-.12-.76-.63-1.41-1.53-1.95s-2.19-.67-3.87-.39h0Z"/>
            <path class="st2" d="M415.35,632.69h-.12c-1.08,1.52-2.45,2.58-4.11,3.18-1.66.6-3.45.9-5.37.9-1.6,0-3.12-.29-4.56-.87s-2.7-1.41-3.78-2.49-1.94-2.38-2.58-3.9c-.64-1.52-.96-3.22-.96-5.1,0-1.64.32-3.15.96-4.53s1.51-2.58,2.61-3.6c1.1-1.02,2.4-1.82,3.9-2.4s3.13-.87,4.89-.87,3.39.27,4.65.81c1.26.54,2.33,1.15,3.21,1.83v-1.8c0-1.84-.6-3.06-1.8-3.66s-2.76-.9-4.68-.9c-1.76,0-3.4.18-4.92.54-1.52.36-3.06.78-4.62,1.26l2.34-9.54c1.92-.56,3.92-.95,6-1.17s4.2-.33,6.36-.33c1.96,0,3.88.23,5.76.69s3.53,1.21,4.95,2.25,2.55,2.38,3.39,4.02c.84,1.64,1.24,3.66,1.2,6.06l-.66,22.68-12.06,1.02v-4.08h0ZM407.73,621.59c-1.36.2-2.48.67-3.36,1.41s-1.26,1.57-1.14,2.49c.16.92.73,1.61,1.71,2.07.98.46,2.25.57,3.81.33s2.72-.74,3.48-1.5,1.06-1.58.9-2.46c-.12-.76-.63-1.41-1.53-1.95-.9-.54-2.19-.67-3.87-.39h0Z"/>
            <path class="st2" d="M415.35,692.69h-.12c-1.08,1.52-2.45,2.58-4.11,3.18-1.66.6-3.45.9-5.37.9-1.6,0-3.12-.29-4.56-.87s-2.7-1.41-3.78-2.49-1.94-2.38-2.58-3.9c-.64-1.52-.96-3.22-.96-5.1,0-1.64.32-3.15.96-4.53s1.51-2.58,2.61-3.6c1.1-1.02,2.4-1.82,3.9-2.4s3.13-.87,4.89-.87,3.39.27,4.65.81c1.26.54,2.33,1.15,3.21,1.83v-1.8c0-1.84-.6-3.06-1.8-3.66s-2.76-.9-4.68-.9c-1.76,0-3.4.18-4.92.54-1.52.36-3.06.78-4.62,1.26l2.34-9.54c1.92-.56,3.92-.95,6-1.17s4.2-.33,6.36-.33c1.96,0,3.88.23,5.76.69s3.53,1.21,4.95,2.25,2.55,2.38,3.39,4.02c.84,1.64,1.24,3.66,1.2,6.06l-.66,22.68-12.06,1.02v-4.08h0ZM407.73,681.59c-1.36.2-2.48.67-3.36,1.41s-1.26,1.57-1.14,2.49c.16.92.73,1.61,1.71,2.07.98.46,2.25.57,3.81.33s2.72-.74,3.48-1.5,1.06-1.58.9-2.46c-.12-.76-.63-1.41-1.53-1.95-.9-.54-2.19-.67-3.87-.39h0Z"/>
            <path class="st2" d="M415.35,752.69h-.12c-1.08,1.52-2.45,2.58-4.11,3.18-1.66.6-3.45.9-5.37.9-1.6,0-3.12-.29-4.56-.87s-2.7-1.41-3.78-2.49-1.94-2.38-2.58-3.9c-.64-1.52-.96-3.22-.96-5.1,0-1.64.32-3.15.96-4.53s1.51-2.58,2.61-3.6c1.1-1.02,2.4-1.82,3.9-2.4s3.13-.87,4.89-.87,3.39.27,4.65.81c1.26.54,2.33,1.15,3.21,1.83v-1.8c0-1.84-.6-3.06-1.8-3.66s-2.76-.9-4.68-.9c-1.76,0-3.4.18-4.92.54-1.52.36-3.06.78-4.62,1.26l2.34-9.54c1.92-.56,3.92-.95,6-1.17s4.2-.33,6.36-.33c1.96,0,3.88.23,5.76.69s3.53,1.21,4.95,2.25,2.55,2.38,3.39,4.02c.84,1.64,1.24,3.66,1.2,6.06l-.66,22.68-12.06,1.02v-4.08h0ZM407.73,741.59c-1.36.2-2.48.67-3.36,1.41s-1.26,1.57-1.14,2.49c.16.92.73,1.61,1.71,2.07.98.46,2.25.57,3.81.33s2.72-.74,3.48-1.5,1.06-1.58.9-2.46c-.12-.76-.63-1.41-1.53-1.95-.9-.54-2.19-.67-3.87-.39h0Z"/>
            <path class="st2" d="M415.35,812.69h-.12c-1.08,1.52-2.45,2.58-4.11,3.18-1.66.6-3.45.9-5.37.9-1.6,0-3.12-.29-4.56-.87s-2.7-1.41-3.78-2.49-1.94-2.38-2.58-3.9c-.64-1.52-.96-3.22-.96-5.1,0-1.64.32-3.15.96-4.53s1.51-2.58,2.61-3.6c1.1-1.02,2.4-1.82,3.9-2.4s3.13-.87,4.89-.87,3.39.27,4.65.81c1.26.54,2.33,1.15,3.21,1.83v-1.8c0-1.84-.6-3.06-1.8-3.66s-2.76-.9-4.68-.9c-1.76,0-3.4.18-4.92.54-1.52.36-3.06.78-4.62,1.26l2.34-9.54c1.92-.56,3.92-.95,6-1.17s4.2-.33,6.36-.33c1.96,0,3.88.23,5.76.69s3.53,1.21,4.95,2.25,2.55,2.38,3.39,4.02c.84,1.64,1.24,3.66,1.2,6.06l-.66,22.68-12.06,1.02v-4.08h0ZM407.73,801.59c-1.36.2-2.48.67-3.36,1.41s-1.26,1.57-1.14,2.49c.16.92.73,1.61,1.71,2.07.98.46,2.25.57,3.81.33s2.72-.74,3.48-1.5,1.06-1.58.9-2.46c-.12-.76-.63-1.41-1.53-1.95-.9-.54-2.19-.67-3.87-.39h0Z"/>
            <path class="st2" d="M415.35,872.69h-.12c-1.08,1.52-2.45,2.58-4.11,3.18-1.66.6-3.45.9-5.37.9-1.6,0-3.12-.29-4.56-.87s-2.7-1.41-3.78-2.49-1.94-2.38-2.58-3.9c-.64-1.52-.96-3.22-.96-5.1,0-1.64.32-3.15.96-4.53s1.51-2.58,2.61-3.6c1.1-1.02,2.4-1.82,3.9-2.4s3.13-.87,4.89-.87,3.39.27,4.65.81c1.26.54,2.33,1.15,3.21,1.83v-1.8c0-1.84-.6-3.06-1.8-3.66s-2.76-.9-4.68-.9c-1.76,0-3.4.18-4.92.54-1.52.36-3.06.78-4.62,1.26l2.34-9.54c1.92-.56,3.92-.95,6-1.17s4.2-.33,6.36-.33c1.96,0,3.88.23,5.76.69s3.53,1.21,4.95,2.25,2.55,2.38,3.39,4.02c.84,1.64,1.24,3.66,1.2,6.06l-.66,22.68-12.06,1.02v-4.08h0ZM407.73,861.59c-1.36.2-2.48.67-3.36,1.41s-1.26,1.57-1.14,2.49c.16.92.73,1.61,1.71,2.07.98.46,2.25.57,3.81.33s2.72-.74,3.48-1.5,1.06-1.58.9-2.46c-.12-.76-.63-1.41-1.53-1.95-.9-.54-2.19-.67-3.87-.39h0Z"/>
          </g>
          <g>
            <path class="st2" d="M339.03,99.91c5.64-1.08,10.29-1.8,13.95-2.16s6.55-.53,8.67-.51c2.12.02,4.02.21,5.7.57,1.64.76,2.98,1.51,4.02,2.25,1.04.74,2.03,1.68,2.97,2.82s1.52,2.46,1.74,3.96-.08,3.19-.9,5.07-2.45,3.96-4.89,6.24c3.36,1.76,5.75,3.65,7.17,5.67s2.2,4.01,2.34,5.97c.14,1.96-.16,3.84-.9,5.64s-1.6,3.38-2.58,4.74c-.98,1.36-2.29,2.86-3.93,4.5-.04.04-.31.21-.81.51s-1.48.66-2.94,1.08-3.41.77-5.85,1.05-5.6.41-9.48.39-8.5-.33-13.86-.93l-.42-46.86h0ZM363.72,129.61c-.06-.4-.24-.87-.54-1.41-.3-.54-.79-.97-1.47-1.29s-1.63-.42-2.85-.3-2.79.64-4.71,1.56l.78,6.3c2.2.2,3.91.1,5.13-.3,1.22-.4,2.1-.89,2.64-1.47s.91-1.39,1.11-2.43c0-.04-.03-.26-.09-.66ZM360.24,111.34c-.3-.42-.85-.7-1.65-.84s-2,.11-3.6.75l-.24,6.3c1.24.2,2.25.09,3.03-.33s1.38-.92,1.8-1.5c.42-.58.77-1.37,1.05-2.37.04-.92-.09-1.59-.39-2.01h0Z"/>
            <path class="st2" d="M360.63,202.69h-.12c-1.08,1.52-2.45,2.58-4.11,3.18-1.66.6-3.45.9-5.37.9-1.6,0-3.12-.29-4.56-.87s-2.7-1.41-3.78-2.49-1.94-2.38-2.58-3.9c-.64-1.52-.96-3.22-.96-5.1,0-1.64.32-3.15.96-4.53.64-1.38,1.51-2.58,2.61-3.6,1.1-1.02,2.4-1.82,3.9-2.4s3.13-.87,4.89-.87,3.39.27,4.65.81c1.26.54,2.33,1.15,3.21,1.83v-1.8c0-1.84-.6-3.06-1.8-3.66s-2.76-.9-4.68-.9c-1.76,0-3.4.18-4.92.54-1.52.36-3.06.78-4.62,1.26l2.34-9.54c1.92-.56,3.92-.95,6-1.17s4.2-.33,6.36-.33c1.96,0,3.88.23,5.76.69s3.53,1.21,4.95,2.25,2.55,2.38,3.39,4.02c.84,1.64,1.24,3.66,1.2,6.06l-.66,22.68-12.06,1.02v-4.08h0ZM353.01,191.59c-1.36.2-2.48.67-3.36,1.41-.88.74-1.26,1.57-1.14,2.49.16.92.73,1.61,1.71,2.07.98.46,2.25.57,3.81.33s2.72-.74,3.48-1.5,1.06-1.58.9-2.46c-.12-.76-.63-1.41-1.53-1.95s-2.19-.67-3.87-.39h0Z"/>
            <path class="st2" d="M360.63,262.69h-.12c-1.08,1.52-2.45,2.58-4.11,3.18-1.66.6-3.45.9-5.37.9-1.6,0-3.12-.29-4.56-.87s-2.7-1.41-3.78-2.49-1.94-2.38-2.58-3.9c-.64-1.52-.96-3.22-.96-5.1,0-1.64.32-3.15.96-4.53.64-1.38,1.51-2.58,2.61-3.6,1.1-1.02,2.4-1.82,3.9-2.4s3.13-.87,4.89-.87,3.39.27,4.65.81c1.26.54,2.33,1.15,3.21,1.83v-1.8c0-1.84-.6-3.06-1.8-3.66s-2.76-.9-4.68-.9c-1.76,0-3.4.18-4.92.54-1.52.36-3.06.78-4.62,1.26l2.34-9.54c1.92-.56,3.92-.95,6-1.17s4.2-.33,6.36-.33c1.96,0,3.88.23,5.76.69s3.53,1.21,4.95,2.25,2.55,2.38,3.39,4.02c.84,1.64,1.24,3.66,1.2,6.06l-.66,22.68-12.06,1.02v-4.08h0ZM353.01,251.59c-1.36.2-2.48.67-3.36,1.41-.88.74-1.26,1.57-1.14,2.49.16.92.73,1.61,1.71,2.07.98.46,2.25.57,3.81.33s2.72-.74,3.48-1.5,1.06-1.58.9-2.46c-.12-.76-.63-1.41-1.53-1.95s-2.19-.67-3.87-.39h0Z"/>
            <path class="st2" d="M360.63,322.69h-.12c-1.08,1.52-2.45,2.58-4.11,3.18-1.66.6-3.45.9-5.37.9-1.6,0-3.12-.29-4.56-.87s-2.7-1.41-3.78-2.49-1.94-2.38-2.58-3.9c-.64-1.52-.96-3.22-.96-5.1,0-1.64.32-3.15.96-4.53.64-1.38,1.51-2.58,2.61-3.6,1.1-1.02,2.4-1.82,3.9-2.4s3.13-.87,4.89-.87,3.39.27,4.65.81c1.26.54,2.33,1.15,3.21,1.83v-1.8c0-1.84-.6-3.06-1.8-3.66s-2.76-.9-4.68-.9c-1.76,0-3.4.18-4.92.54-1.52.36-3.06.78-4.62,1.26l2.34-9.54c1.92-.56,3.92-.95,6-1.17s4.2-.33,6.36-.33c1.96,0,3.88.23,5.76.69s3.53,1.21,4.95,2.25,2.55,2.38,3.39,4.02c.84,1.64,1.24,3.66,1.2,6.06l-.66,22.68-12.06,1.02v-4.08h0ZM353.01,311.59c-1.36.2-2.48.67-3.36,1.41-.88.74-1.26,1.57-1.14,2.49.16.92.73,1.61,1.71,2.07.98.46,2.25.57,3.81.33s2.72-.74,3.48-1.5,1.06-1.58.9-2.46c-.12-.76-.63-1.41-1.53-1.95s-2.19-.67-3.87-.39h0Z"/>
            <path class="st2" d="M360.63,382.69h-.12c-1.08,1.52-2.45,2.58-4.11,3.18-1.66.6-3.45.9-5.37.9-1.6,0-3.12-.29-4.56-.87s-2.7-1.41-3.78-2.49-1.94-2.38-2.58-3.9c-.64-1.52-.96-3.22-.96-5.1,0-1.64.32-3.15.96-4.53.64-1.38,1.51-2.58,2.61-3.6,1.1-1.02,2.4-1.82,3.9-2.4s3.13-.87,4.89-.87,3.39.27,4.65.81c1.26.54,2.33,1.15,3.21,1.83v-1.8c0-1.84-.6-3.06-1.8-3.66s-2.76-.9-4.68-.9c-1.76,0-3.4.18-4.92.54-1.52.36-3.06.78-4.62,1.26l2.34-9.54c1.92-.56,3.92-.95,6-1.17s4.2-.33,6.36-.33c1.96,0,3.88.23,5.76.69s3.53,1.21,4.95,2.25,2.55,2.38,3.39,4.02c.84,1.64,1.24,3.66,1.2,6.06l-.66,22.68-12.06,1.02v-4.08h0ZM353.01,371.59c-1.36.2-2.48.67-3.36,1.41-.88.74-1.26,1.57-1.14,2.49.16.92.73,1.61,1.71,2.07.98.46,2.25.57,3.81.33,1.56-.24,2.72-.74,3.48-1.5s1.06-1.58.9-2.46c-.12-.76-.63-1.41-1.53-1.95s-2.19-.67-3.87-.39h0Z"/>
            <path class="st2" d="M360.63,442.69h-.12c-1.08,1.52-2.45,2.58-4.11,3.18-1.66.6-3.45.9-5.37.9-1.6,0-3.12-.29-4.56-.87s-2.7-1.41-3.78-2.49-1.94-2.38-2.58-3.9c-.64-1.52-.96-3.22-.96-5.1,0-1.64.32-3.15.96-4.53.64-1.38,1.51-2.58,2.61-3.6,1.1-1.02,2.4-1.82,3.9-2.4s3.13-.87,4.89-.87,3.39.27,4.65.81c1.26.54,2.33,1.15,3.21,1.83v-1.8c0-1.84-.6-3.06-1.8-3.66s-2.76-.9-4.68-.9c-1.76,0-3.4.18-4.92.54-1.52.36-3.06.78-4.62,1.26l2.34-9.54c1.92-.56,3.92-.95,6-1.17s4.2-.33,6.36-.33c1.96,0,3.88.23,5.76.69s3.53,1.21,4.95,2.25,2.55,2.38,3.39,4.02c.84,1.64,1.24,3.66,1.2,6.06l-.66,22.68-12.06,1.02v-4.08h0ZM353.01,431.59c-1.36.2-2.48.67-3.36,1.41-.88.74-1.26,1.57-1.14,2.49.16.92.73,1.61,1.71,2.07.98.46,2.25.57,3.81.33,1.56-.24,2.72-.74,3.48-1.5s1.06-1.58.9-2.46c-.12-.76-.63-1.41-1.53-1.95s-2.19-.67-3.87-.39h0Z"/>
            <path class="st2" d="M360.63,502.69h-.12c-1.08,1.52-2.45,2.58-4.11,3.18-1.66.6-3.45.9-5.37.9-1.6,0-3.12-.29-4.56-.87s-2.7-1.41-3.78-2.49-1.94-2.38-2.58-3.9c-.64-1.52-.96-3.22-.96-5.1,0-1.64.32-3.15.96-4.53.64-1.38,1.51-2.58,2.61-3.6,1.1-1.02,2.4-1.82,3.9-2.4s3.13-.87,4.89-.87,3.39.27,4.65.81c1.26.54,2.33,1.15,3.21,1.83v-1.8c0-1.84-.6-3.06-1.8-3.66s-2.76-.9-4.68-.9c-1.76,0-3.4.18-4.92.54-1.52.36-3.06.78-4.62,1.26l2.34-9.54c1.92-.56,3.92-.95,6-1.17s4.2-.33,6.36-.33c1.96,0,3.88.23,5.76.69s3.53,1.21,4.95,2.25,2.55,2.38,3.39,4.02c.84,1.64,1.24,3.66,1.2,6.06l-.66,22.68-12.06,1.02v-4.08h0ZM353.01,491.59c-1.36.2-2.48.67-3.36,1.41s-1.26,1.57-1.14,2.49c.16.92.73,1.61,1.71,2.07.98.46,2.25.57,3.81.33,1.56-.24,2.72-.74,3.48-1.5s1.06-1.58.9-2.46c-.12-.76-.63-1.41-1.53-1.95s-2.19-.67-3.87-.39h0Z"/>
            <path class="st2" d="M360.63,562.69h-.12c-1.08,1.52-2.45,2.58-4.11,3.18-1.66.6-3.45.9-5.37.9-1.6,0-3.12-.29-4.56-.87s-2.7-1.41-3.78-2.49-1.94-2.38-2.58-3.9c-.64-1.52-.96-3.22-.96-5.1,0-1.64.32-3.15.96-4.53s1.51-2.58,2.61-3.6c1.1-1.02,2.4-1.82,3.9-2.4s3.13-.87,4.89-.87,3.39.27,4.65.81c1.26.54,2.33,1.15,3.21,1.83v-1.8c0-1.84-.6-3.06-1.8-3.66s-2.76-.9-4.68-.9c-1.76,0-3.4.18-4.92.54-1.52.36-3.06.78-4.62,1.26l2.34-9.54c1.92-.56,3.92-.95,6-1.17s4.2-.33,6.36-.33c1.96,0,3.88.23,5.76.69s3.53,1.21,4.95,2.25,2.55,2.38,3.39,4.02c.84,1.64,1.24,3.66,1.2,6.06l-.66,22.68-12.06,1.02v-4.08h0ZM353.01,551.59c-1.36.2-2.48.67-3.36,1.41s-1.26,1.57-1.14,2.49c.16.92.73,1.61,1.71,2.07.98.46,2.25.57,3.81.33s2.72-.74,3.48-1.5,1.06-1.58.9-2.46c-.12-.76-.63-1.41-1.53-1.95s-2.19-.67-3.87-.39h0Z"/>
            <path class="st2" d="M360.63,622.69h-.12c-1.08,1.52-2.45,2.58-4.11,3.18-1.66.6-3.45.9-5.37.9-1.6,0-3.12-.29-4.56-.87s-2.7-1.41-3.78-2.49-1.94-2.38-2.58-3.9c-.64-1.52-.96-3.22-.96-5.1,0-1.64.32-3.15.96-4.53s1.51-2.58,2.61-3.6c1.1-1.02,2.4-1.82,3.9-2.4s3.13-.87,4.89-.87,3.39.27,4.65.81c1.26.54,2.33,1.15,3.21,1.83v-1.8c0-1.84-.6-3.06-1.8-3.66s-2.76-.9-4.68-.9c-1.76,0-3.4.18-4.92.54-1.52.36-3.06.78-4.62,1.26l2.34-9.54c1.92-.56,3.92-.95,6-1.17s4.2-.33,6.36-.33c1.96,0,3.88.23,5.76.69s3.53,1.21,4.95,2.25,2.55,2.38,3.39,4.02c.84,1.64,1.24,3.66,1.2,6.06l-.66,22.68-12.06,1.02v-4.08h0ZM353.01,611.59c-1.36.2-2.48.67-3.36,1.41s-1.26,1.57-1.14,2.49c.16.92.73,1.61,1.71,2.07.98.46,2.25.57,3.81.33s2.72-.74,3.48-1.5,1.06-1.58.9-2.46c-.12-.76-.63-1.41-1.53-1.95-.9-.54-2.19-.67-3.87-.39h0Z"/>
            <path class="st2" d="M360.63,682.69h-.12c-1.08,1.52-2.45,2.58-4.11,3.18-1.66.6-3.45.9-5.37.9-1.6,0-3.12-.29-4.56-.87s-2.7-1.41-3.78-2.49-1.94-2.38-2.58-3.9c-.64-1.52-.96-3.22-.96-5.1,0-1.64.32-3.15.96-4.53s1.51-2.58,2.61-3.6c1.1-1.02,2.4-1.82,3.9-2.4s3.13-.87,4.89-.87,3.39.27,4.65.81c1.26.54,2.33,1.15,3.21,1.83v-1.8c0-1.84-.6-3.06-1.8-3.66s-2.76-.9-4.68-.9c-1.76,0-3.4.18-4.92.54-1.52.36-3.06.78-4.62,1.26l2.34-9.54c1.92-.56,3.92-.95,6-1.17s4.2-.33,6.36-.33c1.96,0,3.88.23,5.76.69s3.53,1.21,4.95,2.25,2.55,2.38,3.39,4.02c.84,1.64,1.24,3.66,1.2,6.06l-.66,22.68-12.06,1.02v-4.08h0ZM353.01,671.59c-1.36.2-2.48.67-3.36,1.41s-1.26,1.57-1.14,2.49c.16.92.73,1.61,1.71,2.07.98.46,2.25.57,3.81.33s2.72-.74,3.48-1.5,1.06-1.58.9-2.46c-.12-.76-.63-1.41-1.53-1.95-.9-.54-2.19-.67-3.87-.39h0Z"/>
            <path class="st2" d="M360.63,742.69h-.12c-1.08,1.52-2.45,2.58-4.11,3.18-1.66.6-3.45.9-5.37.9-1.6,0-3.12-.29-4.56-.87s-2.7-1.41-3.78-2.49-1.94-2.38-2.58-3.9c-.64-1.52-.96-3.22-.96-5.1,0-1.64.32-3.15.96-4.53s1.51-2.58,2.61-3.6c1.1-1.02,2.4-1.82,3.9-2.4s3.13-.87,4.89-.87,3.39.27,4.65.81c1.26.54,2.33,1.15,3.21,1.83v-1.8c0-1.84-.6-3.06-1.8-3.66s-2.76-.9-4.68-.9c-1.76,0-3.4.18-4.92.54-1.52.36-3.06.78-4.62,1.26l2.34-9.54c1.92-.56,3.92-.95,6-1.17s4.2-.33,6.36-.33c1.96,0,3.88.23,5.76.69s3.53,1.21,4.95,2.25,2.55,2.38,3.39,4.02c.84,1.64,1.24,3.66,1.2,6.06l-.66,22.68-12.06,1.02v-4.08h0ZM353.01,731.59c-1.36.2-2.48.67-3.36,1.41s-1.26,1.57-1.14,2.49c.16.92.73,1.61,1.71,2.07.98.46,2.25.57,3.81.33s2.72-.74,3.48-1.5,1.06-1.58.9-2.46c-.12-.76-.63-1.41-1.53-1.95-.9-.54-2.19-.67-3.87-.39h0Z"/>
            <path class="st2" d="M360.63,802.69h-.12c-1.08,1.52-2.45,2.58-4.11,3.18-1.66.6-3.45.9-5.37.9-1.6,0-3.12-.29-4.56-.87s-2.7-1.41-3.78-2.49-1.94-2.38-2.58-3.9c-.64-1.52-.96-3.22-.96-5.1,0-1.64.32-3.15.96-4.53s1.51-2.58,2.61-3.6c1.1-1.02,2.4-1.82,3.9-2.4s3.13-.87,4.89-.87,3.39.27,4.65.81c1.26.54,2.33,1.15,3.21,1.83v-1.8c0-1.84-.6-3.06-1.8-3.66s-2.76-.9-4.68-.9c-1.76,0-3.4.18-4.92.54-1.52.36-3.06.78-4.62,1.26l2.34-9.54c1.92-.56,3.92-.95,6-1.17s4.2-.33,6.36-.33c1.96,0,3.88.23,5.76.69s3.53,1.21,4.95,2.25,2.55,2.38,3.39,4.02c.84,1.64,1.24,3.66,1.2,6.06l-.66,22.68-12.06,1.02v-4.08h0ZM353.01,791.59c-1.36.2-2.48.67-3.36,1.41s-1.26,1.57-1.14,2.49c.16.92.73,1.61,1.71,2.07.98.46,2.25.57,3.81.33s2.72-.74,3.48-1.5,1.06-1.58.9-2.46c-.12-.76-.63-1.41-1.53-1.95-.9-.54-2.19-.67-3.87-.39h0Z"/>
            <path class="st2" d="M360.63,862.69h-.12c-1.08,1.52-2.45,2.58-4.11,3.18-1.66.6-3.45.9-5.37.9-1.6,0-3.12-.29-4.56-.87s-2.7-1.41-3.78-2.49-1.94-2.38-2.58-3.9c-.64-1.52-.96-3.22-.96-5.1,0-1.64.32-3.15.96-4.53s1.51-2.58,2.61-3.6c1.1-1.02,2.4-1.82,3.9-2.4s3.13-.87,4.89-.87,3.39.27,4.65.81c1.26.54,2.33,1.15,3.21,1.83v-1.8c0-1.84-.6-3.06-1.8-3.66s-2.76-.9-4.68-.9c-1.76,0-3.4.18-4.92.54-1.52.36-3.06.78-4.62,1.26l2.34-9.54c1.92-.56,3.92-.95,6-1.17s4.2-.33,6.36-.33c1.96,0,3.88.23,5.76.69s3.53,1.21,4.95,2.25,2.55,2.38,3.39,4.02c.84,1.64,1.24,3.66,1.2,6.06l-.66,22.68-12.06,1.02v-4.08h0ZM353.01,851.59c-1.36.2-2.48.67-3.36,1.41s-1.26,1.57-1.14,2.49c.16.92.73,1.61,1.71,2.07.98.46,2.25.57,3.81.33s2.72-.74,3.48-1.5,1.06-1.58.9-2.46c-.12-.76-.63-1.41-1.53-1.95-.9-.54-2.19-.67-3.87-.39h0Z"/>
          </g>
          <g>
            <path class="st2" d="M284.32,109.91c5.64-1.08,10.29-1.8,13.95-2.16s6.55-.53,8.67-.51c2.12.02,4.02.21,5.7.57,1.64.76,2.98,1.51,4.02,2.25,1.04.74,2.03,1.68,2.97,2.82s1.52,2.46,1.74,3.96-.08,3.19-.9,5.07-2.45,3.96-4.89,6.24c3.36,1.76,5.75,3.65,7.17,5.67s2.2,4.01,2.34,5.97c.14,1.96-.16,3.84-.9,5.64s-1.6,3.38-2.58,4.74c-.98,1.36-2.29,2.86-3.93,4.5-.04.04-.31.21-.81.51s-1.48.66-2.94,1.08-3.41.77-5.85,1.05-5.6.41-9.48.39-8.5-.33-13.86-.93l-.42-46.86h0ZM309.01,139.61c-.06-.4-.24-.87-.54-1.41-.3-.54-.79-.97-1.47-1.29s-1.63-.42-2.85-.3-2.79.64-4.71,1.56l.78,6.3c2.2.2,3.91.1,5.13-.3,1.22-.4,2.1-.89,2.64-1.47s.91-1.39,1.11-2.43c0-.04-.03-.26-.09-.66ZM305.53,121.34c-.3-.42-.85-.7-1.65-.84s-2,.11-3.6.75l-.24,6.3c1.24.2,2.25.09,3.03-.33s1.38-.92,1.8-1.5c.42-.58.77-1.37,1.05-2.37.04-.92-.09-1.59-.39-2.01h0Z"/>
            <path class="st2" d="M305.92,212.69h-.12c-1.08,1.52-2.45,2.58-4.11,3.18-1.66.6-3.45.9-5.37.9-1.6,0-3.12-.29-4.56-.87s-2.7-1.41-3.78-2.49-1.94-2.38-2.58-3.9c-.64-1.52-.96-3.22-.96-5.1,0-1.64.32-3.15.96-4.53.64-1.38,1.51-2.58,2.61-3.6,1.1-1.02,2.4-1.82,3.9-2.4s3.13-.87,4.89-.87,3.39.27,4.65.81c1.26.54,2.33,1.15,3.21,1.83v-1.8c0-1.84-.6-3.06-1.8-3.66s-2.76-.9-4.68-.9c-1.76,0-3.4.18-4.92.54-1.52.36-3.06.78-4.62,1.26l2.34-9.54c1.92-.56,3.92-.95,6-1.17s4.2-.33,6.36-.33c1.96,0,3.88.23,5.76.69s3.53,1.21,4.95,2.25,2.55,2.38,3.39,4.02c.84,1.64,1.24,3.66,1.2,6.06l-.66,22.68-12.06,1.02v-4.08h0ZM298.3,201.59c-1.36.2-2.48.67-3.36,1.41-.88.74-1.26,1.57-1.14,2.49.16.92.73,1.61,1.71,2.07.98.46,2.25.57,3.81.33s2.72-.74,3.48-1.5,1.06-1.58.9-2.46c-.12-.76-.63-1.41-1.53-1.95s-2.19-.67-3.87-.39h0Z"/>
            <path class="st2" d="M305.92,272.69h-.12c-1.08,1.52-2.45,2.58-4.11,3.18-1.66.6-3.45.9-5.37.9-1.6,0-3.12-.29-4.56-.87s-2.7-1.41-3.78-2.49-1.94-2.38-2.58-3.9c-.64-1.52-.96-3.22-.96-5.1,0-1.64.32-3.15.96-4.53.64-1.38,1.51-2.58,2.61-3.6,1.1-1.02,2.4-1.82,3.9-2.4s3.13-.87,4.89-.87,3.39.27,4.65.81c1.26.54,2.33,1.15,3.21,1.83v-1.8c0-1.84-.6-3.06-1.8-3.66s-2.76-.9-4.68-.9c-1.76,0-3.4.18-4.92.54-1.52.36-3.06.78-4.62,1.26l2.34-9.54c1.92-.56,3.92-.95,6-1.17s4.2-.33,6.36-.33c1.96,0,3.88.23,5.76.69s3.53,1.21,4.95,2.25,2.55,2.38,3.39,4.02c.84,1.64,1.24,3.66,1.2,6.06l-.66,22.68-12.06,1.02v-4.08h0ZM298.3,261.59c-1.36.2-2.48.67-3.36,1.41-.88.74-1.26,1.57-1.14,2.49.16.92.73,1.61,1.71,2.07.98.46,2.25.57,3.81.33s2.72-.74,3.48-1.5,1.06-1.58.9-2.46c-.12-.76-.63-1.41-1.53-1.95s-2.19-.67-3.87-.39h0Z"/>
            <path class="st2" d="M305.92,332.69h-.12c-1.08,1.52-2.45,2.58-4.11,3.18-1.66.6-3.45.9-5.37.9-1.6,0-3.12-.29-4.56-.87s-2.7-1.41-3.78-2.49-1.94-2.38-2.58-3.9c-.64-1.52-.96-3.22-.96-5.1,0-1.64.32-3.15.96-4.53.64-1.38,1.51-2.58,2.61-3.6,1.1-1.02,2.4-1.82,3.9-2.4s3.13-.87,4.89-.87,3.39.27,4.65.81c1.26.54,2.33,1.15,3.21,1.83v-1.8c0-1.84-.6-3.06-1.8-3.66s-2.76-.9-4.68-.9c-1.76,0-3.4.18-4.92.54-1.52.36-3.06.78-4.62,1.26l2.34-9.54c1.92-.56,3.92-.95,6-1.17s4.2-.33,6.36-.33c1.96,0,3.88.23,5.76.69s3.53,1.21,4.95,2.25,2.55,2.38,3.39,4.02c.84,1.64,1.24,3.66,1.2,6.06l-.66,22.68-12.06,1.02v-4.08h0ZM298.3,321.59c-1.36.2-2.48.67-3.36,1.41-.88.74-1.26,1.57-1.14,2.49.16.92.73,1.61,1.71,2.07.98.46,2.25.57,3.81.33s2.72-.74,3.48-1.5,1.06-1.58.9-2.46c-.12-.76-.63-1.41-1.53-1.95s-2.19-.67-3.87-.39h0Z"/>
            <path class="st2" d="M305.92,392.69h-.12c-1.08,1.52-2.45,2.58-4.11,3.18-1.66.6-3.45.9-5.37.9-1.6,0-3.12-.29-4.56-.87s-2.7-1.41-3.78-2.49-1.94-2.38-2.58-3.9c-.64-1.52-.96-3.22-.96-5.1,0-1.64.32-3.15.96-4.53.64-1.38,1.51-2.58,2.61-3.6,1.1-1.02,2.4-1.82,3.9-2.4s3.13-.87,4.89-.87,3.39.27,4.65.81c1.26.54,2.33,1.15,3.21,1.83v-1.8c0-1.84-.6-3.06-1.8-3.66s-2.76-.9-4.68-.9c-1.76,0-3.4.18-4.92.54-1.52.36-3.06.78-4.62,1.26l2.34-9.54c1.92-.56,3.92-.95,6-1.17s4.2-.33,6.36-.33c1.96,0,3.88.23,5.76.69s3.53,1.21,4.95,2.25,2.55,2.38,3.39,4.02c.84,1.64,1.24,3.66,1.2,6.06l-.66,22.68-12.06,1.02v-4.08h0ZM298.3,381.59c-1.36.2-2.48.67-3.36,1.41-.88.74-1.26,1.57-1.14,2.49.16.92.73,1.61,1.71,2.07.98.46,2.25.57,3.81.33,1.56-.24,2.72-.74,3.48-1.5s1.06-1.58.9-2.46c-.12-.76-.63-1.41-1.53-1.95s-2.19-.67-3.87-.39h0Z"/>
            <path class="st2" d="M305.92,452.69h-.12c-1.08,1.52-2.45,2.58-4.11,3.18-1.66.6-3.45.9-5.37.9-1.6,0-3.12-.29-4.56-.87s-2.7-1.41-3.78-2.49-1.94-2.38-2.58-3.9c-.64-1.52-.96-3.22-.96-5.1,0-1.64.32-3.15.96-4.53.64-1.38,1.51-2.58,2.61-3.6,1.1-1.02,2.4-1.82,3.9-2.4s3.13-.87,4.89-.87,3.39.27,4.65.81c1.26.54,2.33,1.15,3.21,1.83v-1.8c0-1.84-.6-3.06-1.8-3.66s-2.76-.9-4.68-.9c-1.76,0-3.4.18-4.92.54-1.52.36-3.06.78-4.62,1.26l2.34-9.54c1.92-.56,3.92-.95,6-1.17s4.2-.33,6.36-.33c1.96,0,3.88.23,5.76.69s3.53,1.21,4.95,2.25,2.55,2.38,3.39,4.02c.84,1.64,1.24,3.66,1.2,6.06l-.66,22.68-12.06,1.02v-4.08h0ZM298.3,441.59c-1.36.2-2.48.67-3.36,1.41-.88.74-1.26,1.57-1.14,2.49.16.92.73,1.61,1.71,2.07.98.46,2.25.57,3.81.33,1.56-.24,2.72-.74,3.48-1.5s1.06-1.58.9-2.46c-.12-.76-.63-1.41-1.53-1.95s-2.19-.67-3.87-.39h0Z"/>
            <path class="st2" d="M305.92,512.69h-.12c-1.08,1.52-2.45,2.58-4.11,3.18-1.66.6-3.45.9-5.37.9-1.6,0-3.12-.29-4.56-.87s-2.7-1.41-3.78-2.49-1.94-2.38-2.58-3.9c-.64-1.52-.96-3.22-.96-5.1,0-1.64.32-3.15.96-4.53.64-1.38,1.51-2.58,2.61-3.6,1.1-1.02,2.4-1.82,3.9-2.4s3.13-.87,4.89-.87,3.39.27,4.65.81c1.26.54,2.33,1.15,3.21,1.83v-1.8c0-1.84-.6-3.06-1.8-3.66s-2.76-.9-4.68-.9c-1.76,0-3.4.18-4.92.54-1.52.36-3.06.78-4.62,1.26l2.34-9.54c1.92-.56,3.92-.95,6-1.17s4.2-.33,6.36-.33c1.96,0,3.88.23,5.76.69s3.53,1.21,4.95,2.25,2.55,2.38,3.39,4.02c.84,1.64,1.24,3.66,1.2,6.06l-.66,22.68-12.06,1.02v-4.08h0ZM298.3,501.59c-1.36.2-2.48.67-3.36,1.41s-1.26,1.57-1.14,2.49c.16.92.73,1.61,1.71,2.07.98.46,2.25.57,3.81.33s2.72-.74,3.48-1.5,1.06-1.58.9-2.46c-.12-.76-.63-1.41-1.53-1.95s-2.19-.67-3.87-.39h0Z"/>
            <path class="st2" d="M305.92,572.69h-.12c-1.08,1.52-2.45,2.58-4.11,3.18-1.66.6-3.45.9-5.37.9-1.6,0-3.12-.29-4.56-.87s-2.7-1.41-3.78-2.49-1.94-2.38-2.58-3.9c-.64-1.52-.96-3.22-.96-5.1,0-1.64.32-3.15.96-4.53s1.51-2.58,2.61-3.6c1.1-1.02,2.4-1.82,3.9-2.4s3.13-.87,4.89-.87,3.39.27,4.65.81c1.26.54,2.33,1.15,3.21,1.83v-1.8c0-1.84-.6-3.06-1.8-3.66s-2.76-.9-4.68-.9c-1.76,0-3.4.18-4.92.54-1.52.36-3.06.78-4.62,1.26l2.34-9.54c1.92-.56,3.92-.95,6-1.17s4.2-.33,6.36-.33c1.96,0,3.88.23,5.76.69s3.53,1.21,4.95,2.25,2.55,2.38,3.39,4.02c.84,1.64,1.24,3.66,1.2,6.06l-.66,22.68-12.06,1.02v-4.08h0ZM298.3,561.59c-1.36.2-2.48.67-3.36,1.41s-1.26,1.57-1.14,2.49c.16.92.73,1.61,1.71,2.07.98.46,2.25.57,3.81.33s2.72-.74,3.48-1.5,1.06-1.58.9-2.46c-.12-.76-.63-1.41-1.53-1.95s-2.19-.67-3.87-.39h0Z"/>
            <path class="st2" d="M305.92,632.69h-.12c-1.08,1.52-2.45,2.58-4.11,3.18-1.66.6-3.45.9-5.37.9-1.6,0-3.12-.29-4.56-.87s-2.7-1.41-3.78-2.49-1.94-2.38-2.58-3.9c-.64-1.52-.96-3.22-.96-5.1,0-1.64.32-3.15.96-4.53s1.51-2.58,2.61-3.6c1.1-1.02,2.4-1.82,3.9-2.4s3.13-.87,4.89-.87,3.39.27,4.65.81c1.26.54,2.33,1.15,3.21,1.83v-1.8c0-1.84-.6-3.06-1.8-3.66s-2.76-.9-4.68-.9c-1.76,0-3.4.18-4.92.54-1.52.36-3.06.78-4.62,1.26l2.34-9.54c1.92-.56,3.92-.95,6-1.17s4.2-.33,6.36-.33c1.96,0,3.88.23,5.76.69s3.53,1.21,4.95,2.25,2.55,2.38,3.39,4.02c.84,1.64,1.24,3.66,1.2,6.06l-.66,22.68-12.06,1.02v-4.08h0ZM298.3,621.59c-1.36.2-2.48.67-3.36,1.41s-1.26,1.57-1.14,2.49c.16.92.73,1.61,1.71,2.07.98.46,2.25.57,3.81.33s2.72-.74,3.48-1.5,1.06-1.58.9-2.46c-.12-.76-.63-1.41-1.53-1.95-.9-.54-2.19-.67-3.87-.39h0Z"/>
            <path class="st2" d="M305.92,692.69h-.12c-1.08,1.52-2.45,2.58-4.11,3.18-1.66.6-3.45.9-5.37.9-1.6,0-3.12-.29-4.56-.87s-2.7-1.41-3.78-2.49-1.94-2.38-2.58-3.9c-.64-1.52-.96-3.22-.96-5.1,0-1.64.32-3.15.96-4.53s1.51-2.58,2.61-3.6c1.1-1.02,2.4-1.82,3.9-2.4s3.13-.87,4.89-.87,3.39.27,4.65.81c1.26.54,2.33,1.15,3.21,1.83v-1.8c0-1.84-.6-3.06-1.8-3.66s-2.76-.9-4.68-.9c-1.76,0-3.4.18-4.92.54-1.52.36-3.06.78-4.62,1.26l2.34-9.54c1.92-.56,3.92-.95,6-1.17s4.2-.33,6.36-.33c1.96,0,3.88.23,5.76.69s3.53,1.21,4.95,2.25,2.55,2.38,3.39,4.02c.84,1.64,1.24,3.66,1.2,6.06l-.66,22.68-12.06,1.02v-4.08h0ZM298.3,681.59c-1.36.2-2.48.67-3.36,1.41s-1.26,1.57-1.14,2.49c.16.92.73,1.61,1.71,2.07.98.46,2.25.57,3.81.33s2.72-.74,3.48-1.5,1.06-1.58.9-2.46c-.12-.76-.63-1.41-1.53-1.95-.9-.54-2.19-.67-3.87-.39h0Z"/>
            <path class="st2" d="M305.92,752.69h-.12c-1.08,1.52-2.45,2.58-4.11,3.18-1.66.6-3.45.9-5.37.9-1.6,0-3.12-.29-4.56-.87s-2.7-1.41-3.78-2.49-1.94-2.38-2.58-3.9c-.64-1.52-.96-3.22-.96-5.1,0-1.64.32-3.15.96-4.53s1.51-2.58,2.61-3.6c1.1-1.02,2.4-1.82,3.9-2.4s3.13-.87,4.89-.87,3.39.27,4.65.81c1.26.54,2.33,1.15,3.21,1.83v-1.8c0-1.84-.6-3.06-1.8-3.66s-2.76-.9-4.68-.9c-1.76,0-3.4.18-4.92.54-1.52.36-3.06.78-4.62,1.26l2.34-9.54c1.92-.56,3.92-.95,6-1.17s4.2-.33,6.36-.33c1.96,0,3.88.23,5.76.69s3.53,1.21,4.95,2.25,2.55,2.38,3.39,4.02c.84,1.64,1.24,3.66,1.2,6.06l-.66,22.68-12.06,1.02v-4.08h0ZM298.3,741.59c-1.36.2-2.48.67-3.36,1.41s-1.26,1.57-1.14,2.49c.16.92.73,1.61,1.71,2.07.98.46,2.25.57,3.81.33s2.72-.74,3.48-1.5,1.06-1.58.9-2.46c-.12-.76-.63-1.41-1.53-1.95-.9-.54-2.19-.67-3.87-.39h0Z"/>
            <path class="st2" d="M305.92,812.69h-.12c-1.08,1.52-2.45,2.58-4.11,3.18-1.66.6-3.45.9-5.37.9-1.6,0-3.12-.29-4.56-.87s-2.7-1.41-3.78-2.49-1.94-2.38-2.58-3.9c-.64-1.52-.96-3.22-.96-5.1,0-1.64.32-3.15.96-4.53s1.51-2.58,2.61-3.6c1.1-1.02,2.4-1.82,3.9-2.4s3.13-.87,4.89-.87,3.39.27,4.65.81c1.26.54,2.33,1.15,3.21,1.83v-1.8c0-1.84-.6-3.06-1.8-3.66s-2.76-.9-4.68-.9c-1.76,0-3.4.18-4.92.54-1.52.36-3.06.78-4.62,1.26l2.34-9.54c1.92-.56,3.92-.95,6-1.17s4.2-.33,6.36-.33c1.96,0,3.88.23,5.76.69s3.53,1.21,4.95,2.25,2.55,2.38,3.39,4.02c.84,1.64,1.24,3.66,1.2,6.06l-.66,22.68-12.06,1.02v-4.08h0ZM298.3,801.59c-1.36.2-2.48.67-3.36,1.41s-1.26,1.57-1.14,2.49c.16.92.73,1.61,1.71,2.07.98.46,2.25.57,3.81.33s2.72-.74,3.48-1.5,1.06-1.58.9-2.46c-.12-.76-.63-1.41-1.53-1.95-.9-.54-2.19-.67-3.87-.39h0Z"/>
            <path class="st2" d="M305.92,872.69h-.12c-1.08,1.52-2.45,2.58-4.11,3.18-1.66.6-3.45.9-5.37.9-1.6,0-3.12-.29-4.56-.87s-2.7-1.41-3.78-2.49-1.94-2.38-2.58-3.9c-.64-1.52-.96-3.22-.96-5.1,0-1.64.32-3.15.96-4.53s1.51-2.58,2.61-3.6c1.1-1.02,2.4-1.82,3.9-2.4s3.13-.87,4.89-.87,3.39.27,4.65.81c1.26.54,2.33,1.15,3.21,1.83v-1.8c0-1.84-.6-3.06-1.8-3.66s-2.76-.9-4.68-.9c-1.76,0-3.4.18-4.92.54-1.52.36-3.06.78-4.62,1.26l2.34-9.54c1.92-.56,3.92-.95,6-1.17s4.2-.33,6.36-.33c1.96,0,3.88.23,5.76.69s3.53,1.21,4.95,2.25,2.55,2.38,3.39,4.02c.84,1.64,1.24,3.66,1.2,6.06l-.66,22.68-12.06,1.02v-4.08h0ZM298.3,861.59c-1.36.2-2.48.67-3.36,1.41s-1.26,1.57-1.14,2.49c.16.92.73,1.61,1.71,2.07.98.46,2.25.57,3.81.33s2.72-.74,3.48-1.5,1.06-1.58.9-2.46c-.12-.76-.63-1.41-1.53-1.95-.9-.54-2.19-.67-3.87-.39h0Z"/>
          </g>
          <g>
            <path class="st2" d="M229.6,99.91c5.64-1.08,10.29-1.8,13.95-2.16s6.55-.53,8.67-.51,4.02.21,5.7.57c1.64.76,2.98,1.51,4.02,2.25,1.04.74,2.03,1.68,2.97,2.82s1.52,2.46,1.74,3.96-.08,3.19-.9,5.07-2.45,3.96-4.89,6.24c3.36,1.76,5.75,3.65,7.17,5.67s2.2,4.01,2.34,5.97c.14,1.96-.16,3.84-.9,5.64s-1.6,3.38-2.58,4.74c-.98,1.36-2.29,2.86-3.93,4.5-.04.04-.31.21-.81.51s-1.48.66-2.94,1.08-3.41.77-5.85,1.05-5.6.41-9.48.39c-3.88-.02-8.5-.33-13.86-.93l-.42-46.86h0ZM254.29,129.61c-.06-.4-.24-.87-.54-1.41-.3-.54-.79-.97-1.47-1.29-.68-.32-1.63-.42-2.85-.3s-2.79.64-4.71,1.56l.78,6.3c2.2.2,3.91.1,5.13-.3,1.22-.4,2.1-.89,2.64-1.47s.91-1.39,1.11-2.43c0-.04-.03-.26-.09-.66ZM250.81,111.34c-.3-.42-.85-.7-1.65-.84-.8-.14-2,.11-3.6.75l-.24,6.3c1.24.2,2.25.09,3.03-.33s1.38-.92,1.8-1.5.77-1.37,1.05-2.37c.04-.92-.09-1.59-.39-2.01Z"/>
            <path class="st2" d="M251.2,202.69h-.12c-1.08,1.52-2.45,2.58-4.11,3.18s-3.45.9-5.37.9c-1.6,0-3.12-.29-4.56-.87s-2.7-1.41-3.78-2.49-1.94-2.38-2.58-3.9c-.64-1.52-.96-3.22-.96-5.1,0-1.64.32-3.15.96-4.53s1.51-2.58,2.61-3.6,2.4-1.82,3.9-2.4,3.13-.87,4.89-.87,3.39.27,4.65.81,2.33,1.15,3.21,1.83v-1.8c0-1.84-.6-3.06-1.8-3.66s-2.76-.9-4.68-.9c-1.76,0-3.4.18-4.92.54s-3.06.78-4.62,1.26l2.34-9.54c1.92-.56,3.92-.95,6-1.17s4.2-.33,6.36-.33c1.96,0,3.88.23,5.76.69,1.88.46,3.53,1.21,4.95,2.25s2.55,2.38,3.39,4.02c.84,1.64,1.24,3.66,1.2,6.06l-.66,22.68-12.06,1.02v-4.08h0ZM243.58,191.59c-1.36.2-2.48.67-3.36,1.41s-1.26,1.57-1.14,2.49c.16.92.73,1.61,1.71,2.07.98.46,2.25.57,3.81.33s2.72-.74,3.48-1.5,1.06-1.58.9-2.46c-.12-.76-.63-1.41-1.53-1.95s-2.19-.67-3.87-.39h0Z"/>
            <path class="st2" d="M251.2,262.69h-.12c-1.08,1.52-2.45,2.58-4.11,3.18s-3.45.9-5.37.9c-1.6,0-3.12-.29-4.56-.87s-2.7-1.41-3.78-2.49-1.94-2.38-2.58-3.9-.96-3.22-.96-5.1c0-1.64.32-3.15.96-4.53s1.51-2.58,2.61-3.6,2.4-1.82,3.9-2.4,3.13-.87,4.89-.87,3.39.27,4.65.81,2.33,1.15,3.21,1.83v-1.8c0-1.84-.6-3.06-1.8-3.66s-2.76-.9-4.68-.9c-1.76,0-3.4.18-4.92.54s-3.06.78-4.62,1.26l2.34-9.54c1.92-.56,3.92-.95,6-1.17s4.2-.33,6.36-.33c1.96,0,3.88.23,5.76.69,1.88.46,3.53,1.21,4.95,2.25s2.55,2.38,3.39,4.02c.84,1.64,1.24,3.66,1.2,6.06l-.66,22.68-12.06,1.02v-4.08h0ZM243.58,251.59c-1.36.2-2.48.67-3.36,1.41s-1.26,1.57-1.14,2.49c.16.92.73,1.61,1.71,2.07.98.46,2.25.57,3.81.33s2.72-.74,3.48-1.5,1.06-1.58.9-2.46c-.12-.76-.63-1.41-1.53-1.95s-2.19-.67-3.87-.39h0Z"/>
            <path class="st2" d="M251.2,322.69h-.12c-1.08,1.52-2.45,2.58-4.11,3.18s-3.45.9-5.37.9c-1.6,0-3.12-.29-4.56-.87s-2.7-1.41-3.78-2.49-1.94-2.38-2.58-3.9-.96-3.22-.96-5.1c0-1.64.32-3.15.96-4.53s1.51-2.58,2.61-3.6,2.4-1.82,3.9-2.4,3.13-.87,4.89-.87,3.39.27,4.65.81,2.33,1.15,3.21,1.83v-1.8c0-1.84-.6-3.06-1.8-3.66s-2.76-.9-4.68-.9c-1.76,0-3.4.18-4.92.54s-3.06.78-4.62,1.26l2.34-9.54c1.92-.56,3.92-.95,6-1.17s4.2-.33,6.36-.33c1.96,0,3.88.23,5.76.69,1.88.46,3.53,1.21,4.95,2.25s2.55,2.38,3.39,4.02c.84,1.64,1.24,3.66,1.2,6.06l-.66,22.68-12.06,1.02v-4.08h0ZM243.58,311.59c-1.36.2-2.48.67-3.36,1.41s-1.26,1.57-1.14,2.49c.16.92.73,1.61,1.71,2.07.98.46,2.25.57,3.81.33s2.72-.74,3.48-1.5,1.06-1.58.9-2.46c-.12-.76-.63-1.41-1.53-1.95s-2.19-.67-3.87-.39h0Z"/>
            <path class="st2" d="M251.2,382.69h-.12c-1.08,1.52-2.45,2.58-4.11,3.18s-3.45.9-5.37.9c-1.6,0-3.12-.29-4.56-.87s-2.7-1.41-3.78-2.49-1.94-2.38-2.58-3.9-.96-3.22-.96-5.1c0-1.64.32-3.15.96-4.53s1.51-2.58,2.61-3.6c1.1-1.02,2.4-1.82,3.9-2.4s3.13-.87,4.89-.87,3.39.27,4.65.81,2.33,1.15,3.21,1.83v-1.8c0-1.84-.6-3.06-1.8-3.66s-2.76-.9-4.68-.9c-1.76,0-3.4.18-4.92.54-1.52.36-3.06.78-4.62,1.26l2.34-9.54c1.92-.56,3.92-.95,6-1.17s4.2-.33,6.36-.33c1.96,0,3.88.23,5.76.69,1.88.46,3.53,1.21,4.95,2.25s2.55,2.38,3.39,4.02c.84,1.64,1.24,3.66,1.2,6.06l-.66,22.68-12.06,1.02v-4.08h0ZM243.58,371.59c-1.36.2-2.48.67-3.36,1.41s-1.26,1.57-1.14,2.49c.16.92.73,1.61,1.71,2.07.98.46,2.25.57,3.81.33,1.56-.24,2.72-.74,3.48-1.5s1.06-1.58.9-2.46c-.12-.76-.63-1.41-1.53-1.95s-2.19-.67-3.87-.39h0Z"/>
            <path class="st2" d="M251.2,442.69h-.12c-1.08,1.52-2.45,2.58-4.11,3.18s-3.45.9-5.37.9c-1.6,0-3.12-.29-4.56-.87s-2.7-1.41-3.78-2.49-1.94-2.38-2.58-3.9-.96-3.22-.96-5.1c0-1.64.32-3.15.96-4.53s1.51-2.58,2.61-3.6c1.1-1.02,2.4-1.82,3.9-2.4s3.13-.87,4.89-.87,3.39.27,4.65.81,2.33,1.15,3.21,1.83v-1.8c0-1.84-.6-3.06-1.8-3.66s-2.76-.9-4.68-.9c-1.76,0-3.4.18-4.92.54-1.52.36-3.06.78-4.62,1.26l2.34-9.54c1.92-.56,3.92-.95,6-1.17s4.2-.33,6.36-.33c1.96,0,3.88.23,5.76.69,1.88.46,3.53,1.21,4.95,2.25s2.55,2.38,3.39,4.02c.84,1.64,1.24,3.66,1.2,6.06l-.66,22.68-12.06,1.02v-4.08h0ZM243.58,431.59c-1.36.2-2.48.67-3.36,1.41s-1.26,1.57-1.14,2.49c.16.92.73,1.61,1.71,2.07.98.46,2.25.57,3.81.33,1.56-.24,2.72-.74,3.48-1.5s1.06-1.58.9-2.46c-.12-.76-.63-1.41-1.53-1.95s-2.19-.67-3.87-.39h0Z"/>
            <path class="st2" d="M251.2,502.69h-.12c-1.08,1.52-2.45,2.58-4.11,3.18s-3.45.9-5.37.9c-1.6,0-3.12-.29-4.56-.87s-2.7-1.41-3.78-2.49-1.94-2.38-2.58-3.9-.96-3.22-.96-5.1c0-1.64.32-3.15.96-4.53s1.51-2.58,2.61-3.6c1.1-1.02,2.4-1.82,3.9-2.4s3.13-.87,4.89-.87,3.39.27,4.65.81,2.33,1.15,3.21,1.83v-1.8c0-1.84-.6-3.06-1.8-3.66s-2.76-.9-4.68-.9c-1.76,0-3.4.18-4.92.54-1.52.36-3.06.78-4.62,1.26l2.34-9.54c1.92-.56,3.92-.95,6-1.17s4.2-.33,6.36-.33c1.96,0,3.88.23,5.76.69,1.88.46,3.53,1.21,4.95,2.25s2.55,2.38,3.39,4.02c.84,1.64,1.24,3.66,1.2,6.06l-.66,22.68-12.06,1.02v-4.08h0ZM243.58,491.59c-1.36.2-2.48.67-3.36,1.41s-1.26,1.57-1.14,2.49c.16.92.73,1.61,1.71,2.07.98.46,2.25.57,3.81.33,1.56-.24,2.72-.74,3.48-1.5s1.06-1.58.9-2.46c-.12-.76-.63-1.41-1.53-1.95s-2.19-.67-3.87-.39h0Z"/>
            <path class="st2" d="M251.2,562.69h-.12c-1.08,1.52-2.45,2.58-4.11,3.18s-3.45.9-5.37.9c-1.6,0-3.12-.29-4.56-.87s-2.7-1.41-3.78-2.49-1.94-2.38-2.58-3.9-.96-3.22-.96-5.1c0-1.64.32-3.15.96-4.53s1.51-2.58,2.61-3.6c1.1-1.02,2.4-1.82,3.9-2.4s3.13-.87,4.89-.87,3.39.27,4.65.81,2.33,1.15,3.21,1.83v-1.8c0-1.84-.6-3.06-1.8-3.66s-2.76-.9-4.68-.9c-1.76,0-3.4.18-4.92.54s-3.06.78-4.62,1.26l2.34-9.54c1.92-.56,3.92-.95,6-1.17s4.2-.33,6.36-.33c1.96,0,3.88.23,5.76.69,1.88.46,3.53,1.21,4.95,2.25s2.55,2.38,3.39,4.02c.84,1.64,1.24,3.66,1.2,6.06l-.66,22.68-12.06,1.02v-4.08h0ZM243.58,551.59c-1.36.2-2.48.67-3.36,1.41s-1.26,1.57-1.14,2.49c.16.92.73,1.61,1.71,2.07.98.46,2.25.57,3.81.33s2.72-.74,3.48-1.5,1.06-1.58.9-2.46c-.12-.76-.63-1.41-1.53-1.95s-2.19-.67-3.87-.39h0Z"/>
            <path class="st2" d="M251.2,622.69h-.12c-1.08,1.52-2.45,2.58-4.11,3.18s-3.45.9-5.37.9c-1.6,0-3.12-.29-4.56-.87s-2.7-1.41-3.78-2.49-1.94-2.38-2.58-3.9-.96-3.22-.96-5.1c0-1.64.32-3.15.96-4.53s1.51-2.58,2.61-3.6c1.1-1.02,2.4-1.82,3.9-2.4s3.13-.87,4.89-.87,3.39.27,4.65.81,2.33,1.15,3.21,1.83v-1.8c0-1.84-.6-3.06-1.8-3.66s-2.76-.9-4.68-.9c-1.76,0-3.4.18-4.92.54s-3.06.78-4.62,1.26l2.34-9.54c1.92-.56,3.92-.95,6-1.17s4.2-.33,6.36-.33c1.96,0,3.88.23,5.76.69,1.88.46,3.53,1.21,4.95,2.25s2.55,2.38,3.39,4.02c.84,1.64,1.24,3.66,1.2,6.06l-.66,22.68-12.06,1.02v-4.08h0ZM243.58,611.59c-1.36.2-2.48.67-3.36,1.41s-1.26,1.57-1.14,2.49c.16.92.73,1.61,1.71,2.07.98.46,2.25.57,3.81.33s2.72-.74,3.48-1.5,1.06-1.58.9-2.46c-.12-.76-.63-1.41-1.53-1.95-.9-.54-2.19-.67-3.87-.39h0Z"/>
            <path class="st2" d="M251.2,682.69h-.12c-1.08,1.52-2.45,2.58-4.11,3.18s-3.45.9-5.37.9c-1.6,0-3.12-.29-4.56-.87s-2.7-1.41-3.78-2.49-1.94-2.38-2.58-3.9-.96-3.22-.96-5.1c0-1.64.32-3.15.96-4.53s1.51-2.58,2.61-3.6c1.1-1.02,2.4-1.82,3.9-2.4s3.13-.87,4.89-.87,3.39.27,4.65.81,2.33,1.15,3.21,1.83v-1.8c0-1.84-.6-3.06-1.8-3.66s-2.76-.9-4.68-.9c-1.76,0-3.4.18-4.92.54s-3.06.78-4.62,1.26l2.34-9.54c1.92-.56,3.92-.95,6-1.17s4.2-.33,6.36-.33c1.96,0,3.88.23,5.76.69,1.88.46,3.53,1.21,4.95,2.25s2.55,2.38,3.39,4.02c.84,1.64,1.24,3.66,1.2,6.06l-.66,22.68-12.06,1.02v-4.08h0ZM243.58,671.59c-1.36.2-2.48.67-3.36,1.41s-1.26,1.57-1.14,2.49c.16.92.73,1.61,1.71,2.07.98.46,2.25.57,3.81.33s2.72-.74,3.48-1.5,1.06-1.58.9-2.46c-.12-.76-.63-1.41-1.53-1.95-.9-.54-2.19-.67-3.87-.39h0Z"/>
            <path class="st2" d="M251.2,742.69h-.12c-1.08,1.52-2.45,2.58-4.11,3.18s-3.45.9-5.37.9c-1.6,0-3.12-.29-4.56-.87s-2.7-1.41-3.78-2.49-1.94-2.38-2.58-3.9-.96-3.22-.96-5.1c0-1.64.32-3.15.96-4.53s1.51-2.58,2.61-3.6c1.1-1.02,2.4-1.82,3.9-2.4s3.13-.87,4.89-.87,3.39.27,4.65.81,2.33,1.15,3.21,1.83v-1.8c0-1.84-.6-3.06-1.8-3.66s-2.76-.9-4.68-.9c-1.76,0-3.4.18-4.92.54s-3.06.78-4.62,1.26l2.34-9.54c1.92-.56,3.92-.95,6-1.17s4.2-.33,6.36-.33c1.96,0,3.88.23,5.76.69,1.88.46,3.53,1.21,4.95,2.25s2.55,2.38,3.39,4.02c.84,1.64,1.24,3.66,1.2,6.06l-.66,22.68-12.06,1.02v-4.08h0ZM243.58,731.59c-1.36.2-2.48.67-3.36,1.41s-1.26,1.57-1.14,2.49c.16.92.73,1.61,1.71,2.07.98.46,2.25.57,3.81.33s2.72-.74,3.48-1.5,1.06-1.58.9-2.46c-.12-.76-.63-1.41-1.53-1.95-.9-.54-2.19-.67-3.87-.39h0Z"/>
            <path class="st2" d="M251.2,802.69h-.12c-1.08,1.52-2.45,2.58-4.11,3.18s-3.45.9-5.37.9c-1.6,0-3.12-.29-4.56-.87s-2.7-1.41-3.78-2.49-1.94-2.38-2.58-3.9-.96-3.22-.96-5.1c0-1.64.32-3.15.96-4.53s1.51-2.58,2.61-3.6c1.1-1.02,2.4-1.82,3.9-2.4s3.13-.87,4.89-.87,3.39.27,4.65.81,2.33,1.15,3.21,1.83v-1.8c0-1.84-.6-3.06-1.8-3.66s-2.76-.9-4.68-.9c-1.76,0-3.4.18-4.92.54s-3.06.78-4.62,1.26l2.34-9.54c1.92-.56,3.92-.95,6-1.17s4.2-.33,6.36-.33c1.96,0,3.88.23,5.76.69,1.88.46,3.53,1.21,4.95,2.25s2.55,2.38,3.39,4.02c.84,1.64,1.24,3.66,1.2,6.06l-.66,22.68-12.06,1.02v-4.08h0ZM243.58,791.59c-1.36.2-2.48.67-3.36,1.41s-1.26,1.57-1.14,2.49c.16.92.73,1.61,1.71,2.07.98.46,2.25.57,3.81.33s2.72-.74,3.48-1.5,1.06-1.58.9-2.46c-.12-.76-.63-1.41-1.53-1.95-.9-.54-2.19-.67-3.87-.39h0Z"/>
            <path class="st2" d="M251.2,862.69h-.12c-1.08,1.52-2.45,2.58-4.11,3.18s-3.45.9-5.37.9c-1.6,0-3.12-.29-4.56-.87s-2.7-1.41-3.78-2.49-1.94-2.38-2.58-3.9-.96-3.22-.96-5.1c0-1.64.32-3.15.96-4.53s1.51-2.58,2.61-3.6c1.1-1.02,2.4-1.82,3.9-2.4s3.13-.87,4.89-.87,3.39.27,4.65.81,2.33,1.15,3.21,1.83v-1.8c0-1.84-.6-3.06-1.8-3.66s-2.76-.9-4.68-.9c-1.76,0-3.4.18-4.92.54s-3.06.78-4.62,1.26l2.34-9.54c1.92-.56,3.92-.95,6-1.17s4.2-.33,6.36-.33c1.96,0,3.88.23,5.76.69,1.88.46,3.53,1.21,4.95,2.25s2.55,2.38,3.39,4.02c.84,1.64,1.24,3.66,1.2,6.06l-.66,22.68-12.06,1.02v-4.08h0ZM243.58,851.59c-1.36.2-2.48.67-3.36,1.41s-1.26,1.57-1.14,2.49c.16.92.73,1.61,1.71,2.07.98.46,2.25.57,3.81.33s2.72-.74,3.48-1.5,1.06-1.58.9-2.46c-.12-.76-.63-1.41-1.53-1.95-.9-.54-2.19-.67-3.87-.39h0Z"/>
          </g>
          <g>
            <path class="st2" d="M174.88,109.91c5.64-1.08,10.29-1.8,13.95-2.16s6.55-.53,8.67-.51,4.02.21,5.7.57c1.64.76,2.98,1.51,4.02,2.25,1.04.74,2.03,1.68,2.97,2.82s1.52,2.46,1.74,3.96-.08,3.19-.9,5.07c-.82,1.88-2.45,3.96-4.89,6.24,3.36,1.76,5.75,3.65,7.17,5.67s2.2,4.01,2.34,5.97-.16,3.84-.9,5.64c-.74,1.8-1.6,3.38-2.58,4.74s-2.29,2.86-3.93,4.5c-.04.04-.31.21-.81.51s-1.48.66-2.94,1.08-3.41.77-5.85,1.05-5.6.41-9.48.39c-3.88-.02-8.5-.33-13.86-.93l-.42-46.86h0ZM199.57,139.61c-.06-.4-.24-.87-.54-1.41-.3-.54-.79-.97-1.47-1.29-.68-.32-1.63-.42-2.85-.3s-2.79.64-4.71,1.56l.78,6.3c2.2.2,3.91.1,5.13-.3,1.22-.4,2.1-.89,2.64-1.47s.91-1.39,1.11-2.43c0-.04-.03-.26-.09-.66ZM196.09,121.34c-.3-.42-.85-.7-1.65-.84-.8-.14-2,.11-3.6.75l-.24,6.3c1.24.2,2.25.09,3.03-.33s1.38-.92,1.8-1.5.77-1.37,1.05-2.37c.04-.92-.09-1.59-.39-2.01h0Z"/>
            <path class="st2" d="M196.48,212.69h-.12c-1.08,1.52-2.45,2.58-4.11,3.18-1.66.6-3.45.9-5.37.9-1.6,0-3.12-.29-4.56-.87s-2.7-1.41-3.78-2.49-1.94-2.38-2.58-3.9c-.64-1.52-.96-3.22-.96-5.1,0-1.64.32-3.15.96-4.53s1.51-2.58,2.61-3.6,2.4-1.82,3.9-2.4,3.13-.87,4.89-.87,3.39.27,4.65.81,2.33,1.15,3.21,1.83v-1.8c0-1.84-.6-3.06-1.8-3.66s-2.76-.9-4.68-.9c-1.76,0-3.4.18-4.92.54s-3.06.78-4.62,1.26l2.34-9.54c1.92-.56,3.92-.95,6-1.17s4.2-.33,6.36-.33c1.96,0,3.88.23,5.76.69,1.88.46,3.53,1.21,4.95,2.25s2.55,2.38,3.39,4.02,1.24,3.66,1.2,6.06l-.66,22.68-12.06,1.02v-4.08h0ZM188.86,201.59c-1.36.2-2.48.67-3.36,1.41s-1.26,1.57-1.14,2.49c.16.92.73,1.61,1.71,2.07.98.46,2.25.57,3.81.33s2.72-.74,3.48-1.5,1.06-1.58.9-2.46c-.12-.76-.63-1.41-1.53-1.95s-2.19-.67-3.87-.39h0Z"/>
            <path class="st2" d="M196.48,272.69h-.12c-1.08,1.52-2.45,2.58-4.11,3.18s-3.45.9-5.37.9c-1.6,0-3.12-.29-4.56-.87s-2.7-1.41-3.78-2.49-1.94-2.38-2.58-3.9-.96-3.22-.96-5.1c0-1.64.32-3.15.96-4.53s1.51-2.58,2.61-3.6,2.4-1.82,3.9-2.4,3.13-.87,4.89-.87,3.39.27,4.65.81,2.33,1.15,3.21,1.83v-1.8c0-1.84-.6-3.06-1.8-3.66s-2.76-.9-4.68-.9c-1.76,0-3.4.18-4.92.54s-3.06.78-4.62,1.26l2.34-9.54c1.92-.56,3.92-.95,6-1.17s4.2-.33,6.36-.33c1.96,0,3.88.23,5.76.69,1.88.46,3.53,1.21,4.95,2.25s2.55,2.38,3.39,4.02,1.24,3.66,1.2,6.06l-.66,22.68-12.06,1.02v-4.08h0ZM188.86,261.59c-1.36.2-2.48.67-3.36,1.41s-1.26,1.57-1.14,2.49c.16.92.73,1.61,1.71,2.07.98.46,2.25.57,3.81.33s2.72-.74,3.48-1.5,1.06-1.58.9-2.46c-.12-.76-.63-1.41-1.53-1.95s-2.19-.67-3.87-.39h0Z"/>
            <path class="st2" d="M196.48,332.69h-.12c-1.08,1.52-2.45,2.58-4.11,3.18s-3.45.9-5.37.9c-1.6,0-3.12-.29-4.56-.87s-2.7-1.41-3.78-2.49-1.94-2.38-2.58-3.9-.96-3.22-.96-5.1c0-1.64.32-3.15.96-4.53s1.51-2.58,2.61-3.6,2.4-1.82,3.9-2.4,3.13-.87,4.89-.87,3.39.27,4.65.81,2.33,1.15,3.21,1.83v-1.8c0-1.84-.6-3.06-1.8-3.66s-2.76-.9-4.68-.9c-1.76,0-3.4.18-4.92.54s-3.06.78-4.62,1.26l2.34-9.54c1.92-.56,3.92-.95,6-1.17s4.2-.33,6.36-.33c1.96,0,3.88.23,5.76.69,1.88.46,3.53,1.21,4.95,2.25s2.55,2.38,3.39,4.02,1.24,3.66,1.2,6.06l-.66,22.68-12.06,1.02v-4.08ZM188.86,321.59c-1.36.2-2.48.67-3.36,1.41s-1.26,1.57-1.14,2.49c.16.92.73,1.61,1.71,2.07.98.46,2.25.57,3.81.33s2.72-.74,3.48-1.5,1.06-1.58.9-2.46c-.12-.76-.63-1.41-1.53-1.95s-2.19-.67-3.87-.39h0Z"/>
            <path class="st2" d="M196.48,392.69h-.12c-1.08,1.52-2.45,2.58-4.11,3.18s-3.45.9-5.37.9c-1.6,0-3.12-.29-4.56-.87s-2.7-1.41-3.78-2.49-1.94-2.38-2.58-3.9-.96-3.22-.96-5.1c0-1.64.32-3.15.96-4.53s1.51-2.58,2.61-3.6c1.1-1.02,2.4-1.82,3.9-2.4s3.13-.87,4.89-.87,3.39.27,4.65.81,2.33,1.15,3.21,1.83v-1.8c0-1.84-.6-3.06-1.8-3.66s-2.76-.9-4.68-.9c-1.76,0-3.4.18-4.92.54-1.52.36-3.06.78-4.62,1.26l2.34-9.54c1.92-.56,3.92-.95,6-1.17s4.2-.33,6.36-.33c1.96,0,3.88.23,5.76.69,1.88.46,3.53,1.21,4.95,2.25s2.55,2.38,3.39,4.02c.84,1.64,1.24,3.66,1.2,6.06l-.66,22.68-12.06,1.02v-4.08ZM188.86,381.59c-1.36.2-2.48.67-3.36,1.41s-1.26,1.57-1.14,2.49c.16.92.73,1.61,1.71,2.07.98.46,2.25.57,3.81.33,1.56-.24,2.72-.74,3.48-1.5s1.06-1.58.9-2.46c-.12-.76-.63-1.41-1.53-1.95s-2.19-.67-3.87-.39h0Z"/>
            <path class="st2" d="M196.48,452.69h-.12c-1.08,1.52-2.45,2.58-4.11,3.18s-3.45.9-5.37.9c-1.6,0-3.12-.29-4.56-.87s-2.7-1.41-3.78-2.49-1.94-2.38-2.58-3.9-.96-3.22-.96-5.1c0-1.64.32-3.15.96-4.53s1.51-2.58,2.61-3.6c1.1-1.02,2.4-1.82,3.9-2.4s3.13-.87,4.89-.87,3.39.27,4.65.81,2.33,1.15,3.21,1.83v-1.8c0-1.84-.6-3.06-1.8-3.66s-2.76-.9-4.68-.9c-1.76,0-3.4.18-4.92.54-1.52.36-3.06.78-4.62,1.26l2.34-9.54c1.92-.56,3.92-.95,6-1.17s4.2-.33,6.36-.33c1.96,0,3.88.23,5.76.69,1.88.46,3.53,1.21,4.95,2.25s2.55,2.38,3.39,4.02c.84,1.64,1.24,3.66,1.2,6.06l-.66,22.68-12.06,1.02v-4.08ZM188.86,441.59c-1.36.2-2.48.67-3.36,1.41s-1.26,1.57-1.14,2.49c.16.92.73,1.61,1.71,2.07.98.46,2.25.57,3.81.33,1.56-.24,2.72-.74,3.48-1.5s1.06-1.58.9-2.46c-.12-.76-.63-1.41-1.53-1.95s-2.19-.67-3.87-.39h0Z"/>
            <path class="st2" d="M196.48,512.69h-.12c-1.08,1.52-2.45,2.58-4.11,3.18s-3.45.9-5.37.9c-1.6,0-3.12-.29-4.56-.87s-2.7-1.41-3.78-2.49-1.94-2.38-2.58-3.9-.96-3.22-.96-5.1c0-1.64.32-3.15.96-4.53s1.51-2.58,2.61-3.6c1.1-1.02,2.4-1.82,3.9-2.4s3.13-.87,4.89-.87,3.39.27,4.65.81,2.33,1.15,3.21,1.83v-1.8c0-1.84-.6-3.06-1.8-3.66s-2.76-.9-4.68-.9c-1.76,0-3.4.18-4.92.54-1.52.36-3.06.78-4.62,1.26l2.34-9.54c1.92-.56,3.92-.95,6-1.17s4.2-.33,6.36-.33c1.96,0,3.88.23,5.76.69,1.88.46,3.53,1.21,4.95,2.25s2.55,2.38,3.39,4.02c.84,1.64,1.24,3.66,1.2,6.06l-.66,22.68-12.06,1.02v-4.08ZM188.86,501.59c-1.36.2-2.48.67-3.36,1.41s-1.26,1.57-1.14,2.49c.16.92.73,1.61,1.71,2.07.98.46,2.25.57,3.81.33s2.72-.74,3.48-1.5,1.06-1.58.9-2.46c-.12-.76-.63-1.41-1.53-1.95s-2.19-.67-3.87-.39h0Z"/>
            <path class="st2" d="M196.48,572.69h-.12c-1.08,1.52-2.45,2.58-4.11,3.18s-3.45.9-5.37.9c-1.6,0-3.12-.29-4.56-.87s-2.7-1.41-3.78-2.49-1.94-2.38-2.58-3.9-.96-3.22-.96-5.1c0-1.64.32-3.15.96-4.53s1.51-2.58,2.61-3.6c1.1-1.02,2.4-1.82,3.9-2.4s3.13-.87,4.89-.87,3.39.27,4.65.81,2.33,1.15,3.21,1.83v-1.8c0-1.84-.6-3.06-1.8-3.66s-2.76-.9-4.68-.9c-1.76,0-3.4.18-4.92.54s-3.06.78-4.62,1.26l2.34-9.54c1.92-.56,3.92-.95,6-1.17s4.2-.33,6.36-.33c1.96,0,3.88.23,5.76.69,1.88.46,3.53,1.21,4.95,2.25s2.55,2.38,3.39,4.02,1.24,3.66,1.2,6.06l-.66,22.68-12.06,1.02v-4.08h0ZM188.86,561.59c-1.36.2-2.48.67-3.36,1.41s-1.26,1.57-1.14,2.49c.16.92.73,1.61,1.71,2.07.98.46,2.25.57,3.81.33s2.72-.74,3.48-1.5,1.06-1.58.9-2.46c-.12-.76-.63-1.41-1.53-1.95s-2.19-.67-3.87-.39h0Z"/>
            <path class="st2" d="M196.48,632.69h-.12c-1.08,1.52-2.45,2.58-4.11,3.18s-3.45.9-5.37.9c-1.6,0-3.12-.29-4.56-.87s-2.7-1.41-3.78-2.49-1.94-2.38-2.58-3.9-.96-3.22-.96-5.1c0-1.64.32-3.15.96-4.53s1.51-2.58,2.61-3.6c1.1-1.02,2.4-1.82,3.9-2.4s3.13-.87,4.89-.87,3.39.27,4.65.81,2.33,1.15,3.21,1.83v-1.8c0-1.84-.6-3.06-1.8-3.66s-2.76-.9-4.68-.9c-1.76,0-3.4.18-4.92.54s-3.06.78-4.62,1.26l2.34-9.54c1.92-.56,3.92-.95,6-1.17s4.2-.33,6.36-.33c1.96,0,3.88.23,5.76.69,1.88.46,3.53,1.21,4.95,2.25s2.55,2.38,3.39,4.02,1.24,3.66,1.2,6.06l-.66,22.68-12.06,1.02v-4.08h0ZM188.86,621.59c-1.36.2-2.48.67-3.36,1.41s-1.26,1.57-1.14,2.49c.16.92.73,1.61,1.71,2.07.98.46,2.25.57,3.81.33s2.72-.74,3.48-1.5,1.06-1.58.9-2.46c-.12-.76-.63-1.41-1.53-1.95-.9-.54-2.19-.67-3.87-.39h0Z"/>
            <path class="st2" d="M196.48,692.69h-.12c-1.08,1.52-2.45,2.58-4.11,3.18s-3.45.9-5.37.9c-1.6,0-3.12-.29-4.56-.87s-2.7-1.41-3.78-2.49-1.94-2.38-2.58-3.9-.96-3.22-.96-5.1c0-1.64.32-3.15.96-4.53s1.51-2.58,2.61-3.6c1.1-1.02,2.4-1.82,3.9-2.4s3.13-.87,4.89-.87,3.39.27,4.65.81,2.33,1.15,3.21,1.83v-1.8c0-1.84-.6-3.06-1.8-3.66s-2.76-.9-4.68-.9c-1.76,0-3.4.18-4.92.54s-3.06.78-4.62,1.26l2.34-9.54c1.92-.56,3.92-.95,6-1.17s4.2-.33,6.36-.33c1.96,0,3.88.23,5.76.69,1.88.46,3.53,1.21,4.95,2.25s2.55,2.38,3.39,4.02,1.24,3.66,1.2,6.06l-.66,22.68-12.06,1.02v-4.08h0ZM188.86,681.59c-1.36.2-2.48.67-3.36,1.41s-1.26,1.57-1.14,2.49c.16.92.73,1.61,1.71,2.07.98.46,2.25.57,3.81.33s2.72-.74,3.48-1.5,1.06-1.58.9-2.46c-.12-.76-.63-1.41-1.53-1.95-.9-.54-2.19-.67-3.87-.39h0Z"/>
            <path class="st2" d="M196.48,752.69h-.12c-1.08,1.52-2.45,2.58-4.11,3.18s-3.45.9-5.37.9c-1.6,0-3.12-.29-4.56-.87s-2.7-1.41-3.78-2.49-1.94-2.38-2.58-3.9-.96-3.22-.96-5.1c0-1.64.32-3.15.96-4.53s1.51-2.58,2.61-3.6c1.1-1.02,2.4-1.82,3.9-2.4s3.13-.87,4.89-.87,3.39.27,4.65.81,2.33,1.15,3.21,1.83v-1.8c0-1.84-.6-3.06-1.8-3.66s-2.76-.9-4.68-.9c-1.76,0-3.4.18-4.92.54s-3.06.78-4.62,1.26l2.34-9.54c1.92-.56,3.92-.95,6-1.17s4.2-.33,6.36-.33c1.96,0,3.88.23,5.76.69,1.88.46,3.53,1.21,4.95,2.25s2.55,2.38,3.39,4.02,1.24,3.66,1.2,6.06l-.66,22.68-12.06,1.02v-4.08h0ZM188.86,741.59c-1.36.2-2.48.67-3.36,1.41s-1.26,1.57-1.14,2.49c.16.92.73,1.61,1.71,2.07.98.46,2.25.57,3.81.33s2.72-.74,3.48-1.5,1.06-1.58.9-2.46c-.12-.76-.63-1.41-1.53-1.95-.9-.54-2.19-.67-3.87-.39h0Z"/>
            <path class="st2" d="M196.48,812.69h-.12c-1.08,1.52-2.45,2.58-4.11,3.18s-3.45.9-5.37.9c-1.6,0-3.12-.29-4.56-.87s-2.7-1.41-3.78-2.49-1.94-2.38-2.58-3.9-.96-3.22-.96-5.1c0-1.64.32-3.15.96-4.53s1.51-2.58,2.61-3.6c1.1-1.02,2.4-1.82,3.9-2.4s3.13-.87,4.89-.87,3.39.27,4.65.81,2.33,1.15,3.21,1.83v-1.8c0-1.84-.6-3.06-1.8-3.66s-2.76-.9-4.68-.9c-1.76,0-3.4.18-4.92.54s-3.06.78-4.62,1.26l2.34-9.54c1.92-.56,3.92-.95,6-1.17s4.2-.33,6.36-.33c1.96,0,3.88.23,5.76.69,1.88.46,3.53,1.21,4.95,2.25s2.55,2.38,3.39,4.02,1.24,3.66,1.2,6.06l-.66,22.68-12.06,1.02v-4.08h0ZM188.86,801.59c-1.36.2-2.48.67-3.36,1.41s-1.26,1.57-1.14,2.49c.16.92.73,1.61,1.71,2.07.98.46,2.25.57,3.81.33s2.72-.74,3.48-1.5,1.06-1.58.9-2.46c-.12-.76-.63-1.41-1.53-1.95-.9-.54-2.19-.67-3.87-.39h0Z"/>
            <path class="st2" d="M196.48,872.69h-.12c-1.08,1.52-2.45,2.58-4.11,3.18s-3.45.9-5.37.9c-1.6,0-3.12-.29-4.56-.87s-2.7-1.41-3.78-2.49-1.94-2.38-2.58-3.9-.96-3.22-.96-5.1c0-1.64.32-3.15.96-4.53s1.51-2.58,2.61-3.6c1.1-1.02,2.4-1.82,3.9-2.4s3.13-.87,4.89-.87,3.39.27,4.65.81,2.33,1.15,3.21,1.83v-1.8c0-1.84-.6-3.06-1.8-3.66s-2.76-.9-4.68-.9c-1.76,0-3.4.18-4.92.54s-3.06.78-4.62,1.26l2.34-9.54c1.92-.56,3.92-.95,6-1.17s4.2-.33,6.36-.33c1.96,0,3.88.23,5.76.69,1.88.46,3.53,1.21,4.95,2.25s2.55,2.38,3.39,4.02,1.24,3.66,1.2,6.06l-.66,22.68-12.06,1.02v-4.08h0ZM188.86,861.59c-1.36.2-2.48.67-3.36,1.41s-1.26,1.57-1.14,2.49c.16.92.73,1.61,1.71,2.07.98.46,2.25.57,3.81.33s2.72-.74,3.48-1.5,1.06-1.58.9-2.46c-.12-.76-.63-1.41-1.53-1.95-.9-.54-2.19-.67-3.87-.39h0Z"/>
          </g>
          <g>
            <path class="st2" d="M120.16,99.91c5.64-1.08,10.29-1.8,13.95-2.16s6.55-.53,8.67-.51,4.02.21,5.7.57c1.64.76,2.98,1.51,4.02,2.25,1.04.74,2.03,1.68,2.97,2.82s1.52,2.46,1.74,3.96-.08,3.19-.9,5.07c-.82,1.88-2.45,3.96-4.89,6.24,3.36,1.76,5.75,3.65,7.17,5.67s2.2,4.01,2.34,5.97-.16,3.84-.9,5.64c-.74,1.8-1.6,3.38-2.58,4.74s-2.29,2.86-3.93,4.5c-.04.04-.31.21-.81.51s-1.48.66-2.94,1.08-3.41.77-5.85,1.05-5.6.41-9.48.39c-3.88-.02-8.5-.33-13.86-.93l-.42-46.86h0ZM144.85,129.61c-.06-.4-.24-.87-.54-1.41-.3-.54-.79-.97-1.47-1.29-.68-.32-1.63-.42-2.85-.3s-2.79.64-4.71,1.56l.78,6.3c2.2.2,3.91.1,5.13-.3,1.22-.4,2.1-.89,2.64-1.47s.91-1.39,1.11-2.43c0-.04-.03-.26-.09-.66ZM141.37,111.34c-.3-.42-.85-.7-1.65-.84-.8-.14-2,.11-3.6.75l-.24,6.3c1.24.2,2.25.09,3.03-.33s1.38-.92,1.8-1.5.77-1.37,1.05-2.37c.04-.92-.09-1.59-.39-2.01Z"/>
            <path class="st2" d="M141.76,202.69h-.12c-1.08,1.52-2.45,2.58-4.11,3.18s-3.45.9-5.37.9c-1.6,0-3.12-.29-4.56-.87s-2.7-1.41-3.78-2.49-1.94-2.38-2.58-3.9c-.64-1.52-.96-3.22-.96-5.1,0-1.64.32-3.15.96-4.53s1.51-2.58,2.61-3.6,2.4-1.82,3.9-2.4c1.5-.58,3.13-.87,4.89-.87s3.39.27,4.65.81,2.33,1.15,3.21,1.83v-1.8c0-1.84-.6-3.06-1.8-3.66s-2.76-.9-4.68-.9c-1.76,0-3.4.18-4.92.54-1.52.36-3.06.78-4.62,1.26l2.34-9.54c1.92-.56,3.92-.95,6-1.17,2.08-.22,4.2-.33,6.36-.33,1.96,0,3.88.23,5.76.69,1.88.46,3.53,1.21,4.95,2.25s2.55,2.38,3.39,4.02,1.24,3.66,1.2,6.06l-.66,22.68-12.06,1.02v-4.08h0ZM134.14,191.59c-1.36.2-2.48.67-3.36,1.41s-1.26,1.57-1.14,2.49c.16.92.73,1.61,1.71,2.07.98.46,2.25.57,3.81.33s2.72-.74,3.48-1.5,1.06-1.58.9-2.46c-.12-.76-.63-1.41-1.53-1.95s-2.19-.67-3.87-.39h0Z"/>
            <path class="st2" d="M141.76,262.69h-.12c-1.08,1.52-2.45,2.58-4.11,3.18s-3.45.9-5.37.9c-1.6,0-3.12-.29-4.56-.87s-2.7-1.41-3.78-2.49-1.94-2.38-2.58-3.9-.96-3.22-.96-5.1c0-1.64.32-3.15.96-4.53s1.51-2.58,2.61-3.6,2.4-1.82,3.9-2.4c1.5-.58,3.13-.87,4.89-.87s3.39.27,4.65.81,2.33,1.15,3.21,1.83v-1.8c0-1.84-.6-3.06-1.8-3.66s-2.76-.9-4.68-.9c-1.76,0-3.4.18-4.92.54-1.52.36-3.06.78-4.62,1.26l2.34-9.54c1.92-.56,3.92-.95,6-1.17,2.08-.22,4.2-.33,6.36-.33,1.96,0,3.88.23,5.76.69,1.88.46,3.53,1.21,4.95,2.25s2.55,2.38,3.39,4.02,1.24,3.66,1.2,6.06l-.66,22.68-12.06,1.02v-4.08ZM134.14,251.59c-1.36.2-2.48.67-3.36,1.41s-1.26,1.57-1.14,2.49c.16.92.73,1.61,1.71,2.07.98.46,2.25.57,3.81.33s2.72-.74,3.48-1.5,1.06-1.58.9-2.46c-.12-.76-.63-1.41-1.53-1.95s-2.19-.67-3.87-.39h0Z"/>
            <path class="st2" d="M141.76,322.69h-.12c-1.08,1.52-2.45,2.58-4.11,3.18s-3.45.9-5.37.9c-1.6,0-3.12-.29-4.56-.87s-2.7-1.41-3.78-2.49-1.94-2.38-2.58-3.9-.96-3.22-.96-5.1c0-1.64.32-3.15.96-4.53s1.51-2.58,2.61-3.6,2.4-1.82,3.9-2.4c1.5-.58,3.13-.87,4.89-.87s3.39.27,4.65.81,2.33,1.15,3.21,1.83v-1.8c0-1.84-.6-3.06-1.8-3.66s-2.76-.9-4.68-.9c-1.76,0-3.4.18-4.92.54-1.52.36-3.06.78-4.62,1.26l2.34-9.54c1.92-.56,3.92-.95,6-1.17,2.08-.22,4.2-.33,6.36-.33,1.96,0,3.88.23,5.76.69,1.88.46,3.53,1.21,4.95,2.25s2.55,2.38,3.39,4.02,1.24,3.66,1.2,6.06l-.66,22.68-12.06,1.02v-4.08ZM134.14,311.59c-1.36.2-2.48.67-3.36,1.41s-1.26,1.57-1.14,2.49c.16.92.73,1.61,1.71,2.07.98.46,2.25.57,3.81.33s2.72-.74,3.48-1.5,1.06-1.58.9-2.46c-.12-.76-.63-1.41-1.53-1.95s-2.19-.67-3.87-.39h0Z"/>
            <path class="st2" d="M141.76,382.69h-.12c-1.08,1.52-2.45,2.58-4.11,3.18s-3.45.9-5.37.9c-1.6,0-3.12-.29-4.56-.87s-2.7-1.41-3.78-2.49-1.94-2.38-2.58-3.9-.96-3.22-.96-5.1c0-1.64.32-3.15.96-4.53s1.51-2.58,2.61-3.6c1.1-1.02,2.4-1.82,3.9-2.4,1.5-.58,3.13-.87,4.89-.87s3.39.27,4.65.81,2.33,1.15,3.21,1.83v-1.8c0-1.84-.6-3.06-1.8-3.66s-2.76-.9-4.68-.9c-1.76,0-3.4.18-4.92.54-1.52.36-3.06.78-4.62,1.26l2.34-9.54c1.92-.56,3.92-.95,6-1.17,2.08-.22,4.2-.33,6.36-.33,1.96,0,3.88.23,5.76.69,1.88.46,3.53,1.21,4.95,2.25s2.55,2.38,3.39,4.02c.84,1.64,1.24,3.66,1.2,6.06l-.66,22.68-12.06,1.02v-4.08ZM134.14,371.59c-1.36.2-2.48.67-3.36,1.41s-1.26,1.57-1.14,2.49c.16.92.73,1.61,1.71,2.07.98.46,2.25.57,3.81.33,1.56-.24,2.72-.74,3.48-1.5s1.06-1.58.9-2.46c-.12-.76-.63-1.41-1.53-1.95s-2.19-.67-3.87-.39h0Z"/>
            <path class="st2" d="M141.76,442.69h-.12c-1.08,1.52-2.45,2.58-4.11,3.18s-3.45.9-5.37.9c-1.6,0-3.12-.29-4.56-.87s-2.7-1.41-3.78-2.49-1.94-2.38-2.58-3.9-.96-3.22-.96-5.1c0-1.64.32-3.15.96-4.53s1.51-2.58,2.61-3.6c1.1-1.02,2.4-1.82,3.9-2.4,1.5-.58,3.13-.87,4.89-.87s3.39.27,4.65.81,2.33,1.15,3.21,1.83v-1.8c0-1.84-.6-3.06-1.8-3.66s-2.76-.9-4.68-.9c-1.76,0-3.4.18-4.92.54-1.52.36-3.06.78-4.62,1.26l2.34-9.54c1.92-.56,3.92-.95,6-1.17,2.08-.22,4.2-.33,6.36-.33,1.96,0,3.88.23,5.76.69,1.88.46,3.53,1.21,4.95,2.25s2.55,2.38,3.39,4.02c.84,1.64,1.24,3.66,1.2,6.06l-.66,22.68-12.06,1.02v-4.08ZM134.14,431.59c-1.36.2-2.48.67-3.36,1.41s-1.26,1.57-1.14,2.49c.16.92.73,1.61,1.71,2.07.98.46,2.25.57,3.81.33,1.56-.24,2.72-.74,3.48-1.5s1.06-1.58.9-2.46c-.12-.76-.63-1.41-1.53-1.95s-2.19-.67-3.87-.39h0Z"/>
            <path class="st2" d="M141.76,502.69h-.12c-1.08,1.52-2.45,2.58-4.11,3.18s-3.45.9-5.37.9c-1.6,0-3.12-.29-4.56-.87s-2.7-1.41-3.78-2.49-1.94-2.38-2.58-3.9-.96-3.22-.96-5.1c0-1.64.32-3.15.96-4.53s1.51-2.58,2.61-3.6c1.1-1.02,2.4-1.82,3.9-2.4,1.5-.58,3.13-.87,4.89-.87s3.39.27,4.65.81,2.33,1.15,3.21,1.83v-1.8c0-1.84-.6-3.06-1.8-3.66s-2.76-.9-4.68-.9c-1.76,0-3.4.18-4.92.54-1.52.36-3.06.78-4.62,1.26l2.34-9.54c1.92-.56,3.92-.95,6-1.17,2.08-.22,4.2-.33,6.36-.33,1.96,0,3.88.23,5.76.69,1.88.46,3.53,1.21,4.95,2.25s2.55,2.38,3.39,4.02c.84,1.64,1.24,3.66,1.2,6.06l-.66,22.68-12.06,1.02v-4.08ZM134.14,491.59c-1.36.2-2.48.67-3.36,1.41s-1.26,1.57-1.14,2.49c.16.92.73,1.61,1.71,2.07.98.46,2.25.57,3.81.33,1.56-.24,2.72-.74,3.48-1.5s1.06-1.58.9-2.46c-.12-.76-.63-1.41-1.53-1.95s-2.19-.67-3.87-.39h0Z"/>
            <path class="st2" d="M141.76,562.69h-.12c-1.08,1.52-2.45,2.58-4.11,3.18s-3.45.9-5.37.9c-1.6,0-3.12-.29-4.56-.87s-2.7-1.41-3.78-2.49-1.94-2.38-2.58-3.9-.96-3.22-.96-5.1c0-1.64.32-3.15.96-4.53s1.51-2.58,2.61-3.6c1.1-1.02,2.4-1.82,3.9-2.4,1.5-.58,3.13-.87,4.89-.87s3.39.27,4.65.81,2.33,1.15,3.21,1.83v-1.8c0-1.84-.6-3.06-1.8-3.66s-2.76-.9-4.68-.9c-1.76,0-3.4.18-4.92.54-1.52.36-3.06.78-4.62,1.26l2.34-9.54c1.92-.56,3.92-.95,6-1.17,2.08-.22,4.2-.33,6.36-.33,1.96,0,3.88.23,5.76.69,1.88.46,3.53,1.21,4.95,2.25s2.55,2.38,3.39,4.02,1.24,3.66,1.2,6.06l-.66,22.68-12.06,1.02v-4.08h0ZM134.14,551.59c-1.36.2-2.48.67-3.36,1.41s-1.26,1.57-1.14,2.49c.16.92.73,1.61,1.71,2.07.98.46,2.25.57,3.81.33s2.72-.74,3.48-1.5,1.06-1.58.9-2.46c-.12-.76-.63-1.41-1.53-1.95s-2.19-.67-3.87-.39h0Z"/>
            <path class="st2" d="M141.76,622.69h-.12c-1.08,1.52-2.45,2.58-4.11,3.18s-3.45.9-5.37.9c-1.6,0-3.12-.29-4.56-.87s-2.7-1.41-3.78-2.49-1.94-2.38-2.58-3.9-.96-3.22-.96-5.1c0-1.64.32-3.15.96-4.53s1.51-2.58,2.61-3.6c1.1-1.02,2.4-1.82,3.9-2.4,1.5-.58,3.13-.87,4.89-.87s3.39.27,4.65.81,2.33,1.15,3.21,1.83v-1.8c0-1.84-.6-3.06-1.8-3.66s-2.76-.9-4.68-.9c-1.76,0-3.4.18-4.92.54-1.52.36-3.06.78-4.62,1.26l2.34-9.54c1.92-.56,3.92-.95,6-1.17,2.08-.22,4.2-.33,6.36-.33,1.96,0,3.88.23,5.76.69,1.88.46,3.53,1.21,4.95,2.25s2.55,2.38,3.39,4.02,1.24,3.66,1.2,6.06l-.66,22.68-12.06,1.02v-4.08h0ZM134.14,611.59c-1.36.2-2.48.67-3.36,1.41s-1.26,1.57-1.14,2.49c.16.92.73,1.61,1.71,2.07.98.46,2.25.57,3.81.33s2.72-.74,3.48-1.5,1.06-1.58.9-2.46c-.12-.76-.63-1.41-1.53-1.95-.9-.54-2.19-.67-3.87-.39h0Z"/>
            <path class="st2" d="M141.76,682.69h-.12c-1.08,1.52-2.45,2.58-4.11,3.18s-3.45.9-5.37.9c-1.6,0-3.12-.29-4.56-.87s-2.7-1.41-3.78-2.49-1.94-2.38-2.58-3.9-.96-3.22-.96-5.1c0-1.64.32-3.15.96-4.53s1.51-2.58,2.61-3.6c1.1-1.02,2.4-1.82,3.9-2.4,1.5-.58,3.13-.87,4.89-.87s3.39.27,4.65.81,2.33,1.15,3.21,1.83v-1.8c0-1.84-.6-3.06-1.8-3.66s-2.76-.9-4.68-.9c-1.76,0-3.4.18-4.92.54-1.52.36-3.06.78-4.62,1.26l2.34-9.54c1.92-.56,3.92-.95,6-1.17,2.08-.22,4.2-.33,6.36-.33,1.96,0,3.88.23,5.76.69,1.88.46,3.53,1.21,4.95,2.25s2.55,2.38,3.39,4.02,1.24,3.66,1.2,6.06l-.66,22.68-12.06,1.02v-4.08h0ZM134.14,671.59c-1.36.2-2.48.67-3.36,1.41s-1.26,1.57-1.14,2.49c.16.92.73,1.61,1.71,2.07.98.46,2.25.57,3.81.33s2.72-.74,3.48-1.5,1.06-1.58.9-2.46c-.12-.76-.63-1.41-1.53-1.95-.9-.54-2.19-.67-3.87-.39h0Z"/>
            <path class="st2" d="M141.76,742.69h-.12c-1.08,1.52-2.45,2.58-4.11,3.18s-3.45.9-5.37.9c-1.6,0-3.12-.29-4.56-.87s-2.7-1.41-3.78-2.49-1.94-2.38-2.58-3.9-.96-3.22-.96-5.1c0-1.64.32-3.15.96-4.53s1.51-2.58,2.61-3.6c1.1-1.02,2.4-1.82,3.9-2.4,1.5-.58,3.13-.87,4.89-.87s3.39.27,4.65.81,2.33,1.15,3.21,1.83v-1.8c0-1.84-.6-3.06-1.8-3.66s-2.76-.9-4.68-.9c-1.76,0-3.4.18-4.92.54-1.52.36-3.06.78-4.62,1.26l2.34-9.54c1.92-.56,3.92-.95,6-1.17,2.08-.22,4.2-.33,6.36-.33,1.96,0,3.88.23,5.76.69,1.88.46,3.53,1.21,4.95,2.25s2.55,2.38,3.39,4.02,1.24,3.66,1.2,6.06l-.66,22.68-12.06,1.02v-4.08h0ZM134.14,731.59c-1.36.2-2.48.67-3.36,1.41s-1.26,1.57-1.14,2.49c.16.92.73,1.61,1.71,2.07.98.46,2.25.57,3.81.33s2.72-.74,3.48-1.5,1.06-1.58.9-2.46c-.12-.76-.63-1.41-1.53-1.95-.9-.54-2.19-.67-3.87-.39h0Z"/>
            <path class="st2" d="M141.76,802.69h-.12c-1.08,1.52-2.45,2.58-4.11,3.18s-3.45.9-5.37.9c-1.6,0-3.12-.29-4.56-.87s-2.7-1.41-3.78-2.49-1.94-2.38-2.58-3.9-.96-3.22-.96-5.1c0-1.64.32-3.15.96-4.53s1.51-2.58,2.61-3.6c1.1-1.02,2.4-1.82,3.9-2.4,1.5-.58,3.13-.87,4.89-.87s3.39.27,4.65.81,2.33,1.15,3.21,1.83v-1.8c0-1.84-.6-3.06-1.8-3.66s-2.76-.9-4.68-.9c-1.76,0-3.4.18-4.92.54-1.52.36-3.06.78-4.62,1.26l2.34-9.54c1.92-.56,3.92-.95,6-1.17,2.08-.22,4.2-.33,6.36-.33,1.96,0,3.88.23,5.76.69,1.88.46,3.53,1.21,4.95,2.25s2.55,2.38,3.39,4.02,1.24,3.66,1.2,6.06l-.66,22.68-12.06,1.02v-4.08h0ZM134.14,791.59c-1.36.2-2.48.67-3.36,1.41s-1.26,1.57-1.14,2.49c.16.92.73,1.61,1.71,2.07.98.46,2.25.57,3.81.33s2.72-.74,3.48-1.5,1.06-1.58.9-2.46c-.12-.76-.63-1.41-1.53-1.95-.9-.54-2.19-.67-3.87-.39h0Z"/>
            <path class="st2" d="M141.76,862.69h-.12c-1.08,1.52-2.45,2.58-4.11,3.18s-3.45.9-5.37.9c-1.6,0-3.12-.29-4.56-.87s-2.7-1.41-3.78-2.49-1.94-2.38-2.58-3.9-.96-3.22-.96-5.1c0-1.64.32-3.15.96-4.53s1.51-2.58,2.61-3.6c1.1-1.02,2.4-1.82,3.9-2.4,1.5-.58,3.13-.87,4.89-.87s3.39.27,4.65.81,2.33,1.15,3.21,1.83v-1.8c0-1.84-.6-3.06-1.8-3.66s-2.76-.9-4.68-.9c-1.76,0-3.4.18-4.92.54-1.52.36-3.06.78-4.62,1.26l2.34-9.54c1.92-.56,3.92-.95,6-1.17,2.08-.22,4.2-.33,6.36-.33,1.96,0,3.88.23,5.76.69,1.88.46,3.53,1.21,4.95,2.25s2.55,2.38,3.39,4.02,1.24,3.66,1.2,6.06l-.66,22.68-12.06,1.02v-4.08h0ZM134.14,851.59c-1.36.2-2.48.67-3.36,1.41s-1.26,1.57-1.14,2.49c.16.92.73,1.61,1.71,2.07.98.46,2.25.57,3.81.33s2.72-.74,3.48-1.5,1.06-1.58.9-2.46c-.12-.76-.63-1.41-1.53-1.95-.9-.54-2.19-.67-3.87-.39h0Z"/>
          </g>
          <g>
            <path class="st2" d="M65.44,109.91c5.64-1.08,10.29-1.8,13.95-2.16s6.55-.53,8.67-.51c2.12.02,4.02.21,5.7.57,1.64.76,2.98,1.51,4.02,2.25,1.04.74,2.03,1.68,2.97,2.82s1.52,2.46,1.74,3.96-.08,3.19-.9,5.07-2.45,3.96-4.89,6.24c3.36,1.76,5.75,3.65,7.17,5.67s2.2,4.01,2.34,5.97-.16,3.84-.9,5.64-1.6,3.38-2.58,4.74-2.29,2.86-3.93,4.5c-.04.04-.31.21-.81.51s-1.48.66-2.94,1.08-3.41.77-5.85,1.05c-2.44.28-5.6.41-9.48.39s-8.5-.33-13.86-.93l-.42-46.86h0ZM90.13,139.61c-.06-.4-.24-.87-.54-1.41s-.79-.97-1.47-1.29-1.63-.42-2.85-.3-2.79.64-4.71,1.56l.78,6.3c2.2.2,3.91.1,5.13-.3,1.22-.4,2.1-.89,2.64-1.47s.91-1.39,1.11-2.43c0-.04-.03-.26-.09-.66ZM86.65,121.34c-.3-.42-.85-.7-1.65-.84s-2,.11-3.6.75l-.24,6.3c1.24.2,2.25.09,3.03-.33s1.38-.92,1.8-1.5c.42-.58.77-1.37,1.05-2.37.04-.92-.09-1.59-.39-2.01h0Z"/>
            <path class="st2" d="M87.05,212.69h-.12c-1.08,1.52-2.45,2.58-4.11,3.18-1.66.6-3.45.9-5.37.9-1.6,0-3.12-.29-4.56-.87-1.44-.58-2.7-1.41-3.78-2.49s-1.94-2.38-2.58-3.9c-.64-1.52-.96-3.22-.96-5.1,0-1.64.32-3.15.96-4.53s1.51-2.58,2.61-3.6,2.4-1.82,3.9-2.4,3.13-.87,4.89-.87,3.39.27,4.65.81,2.33,1.15,3.21,1.83v-1.8c0-1.84-.6-3.06-1.8-3.66s-2.76-.9-4.68-.9c-1.76,0-3.4.18-4.92.54s-3.06.78-4.62,1.26l2.34-9.54c1.92-.56,3.92-.95,6-1.17s4.2-.33,6.36-.33c1.96,0,3.88.23,5.76.69,1.88.46,3.53,1.21,4.95,2.25s2.55,2.38,3.39,4.02,1.24,3.66,1.2,6.06l-.66,22.68-12.06,1.02v-4.08h0ZM79.42,201.59c-1.36.2-2.48.67-3.36,1.41s-1.26,1.57-1.14,2.49c.16.92.73,1.61,1.71,2.07.98.46,2.25.57,3.81.33s2.72-.74,3.48-1.5,1.06-1.58.9-2.46c-.12-.76-.63-1.41-1.53-1.95s-2.19-.67-3.87-.39h0Z"/>
            <path class="st2" d="M87.05,272.69h-.12c-1.08,1.52-2.45,2.58-4.11,3.18s-3.45.9-5.37.9c-1.6,0-3.12-.29-4.56-.87-1.44-.58-2.7-1.41-3.78-2.49s-1.94-2.38-2.58-3.9-.96-3.22-.96-5.1c0-1.64.32-3.15.96-4.53s1.51-2.58,2.61-3.6,2.4-1.82,3.9-2.4,3.13-.87,4.89-.87,3.39.27,4.65.81,2.33,1.15,3.21,1.83v-1.8c0-1.84-.6-3.06-1.8-3.66s-2.76-.9-4.68-.9c-1.76,0-3.4.18-4.92.54s-3.06.78-4.62,1.26l2.34-9.54c1.92-.56,3.92-.95,6-1.17s4.2-.33,6.36-.33c1.96,0,3.88.23,5.76.69,1.88.46,3.53,1.21,4.95,2.25s2.55,2.38,3.39,4.02,1.24,3.66,1.2,6.06l-.66,22.68-12.06,1.02v-4.08h0ZM79.42,261.59c-1.36.2-2.48.67-3.36,1.41s-1.26,1.57-1.14,2.49c.16.92.73,1.61,1.71,2.07.98.46,2.25.57,3.81.33s2.72-.74,3.48-1.5,1.06-1.58.9-2.46c-.12-.76-.63-1.41-1.53-1.95s-2.19-.67-3.87-.39h0Z"/>
            <path class="st2" d="M87.05,332.69h-.12c-1.08,1.52-2.45,2.58-4.11,3.18s-3.45.9-5.37.9c-1.6,0-3.12-.29-4.56-.87-1.44-.58-2.7-1.41-3.78-2.49s-1.94-2.38-2.58-3.9-.96-3.22-.96-5.1c0-1.64.32-3.15.96-4.53s1.51-2.58,2.61-3.6,2.4-1.82,3.9-2.4,3.13-.87,4.89-.87,3.39.27,4.65.81,2.33,1.15,3.21,1.83v-1.8c0-1.84-.6-3.06-1.8-3.66s-2.76-.9-4.68-.9c-1.76,0-3.4.18-4.92.54s-3.06.78-4.62,1.26l2.34-9.54c1.92-.56,3.92-.95,6-1.17s4.2-.33,6.36-.33c1.96,0,3.88.23,5.76.69,1.88.46,3.53,1.21,4.95,2.25s2.55,2.38,3.39,4.02,1.24,3.66,1.2,6.06l-.66,22.68-12.06,1.02v-4.08h0ZM79.42,321.59c-1.36.2-2.48.67-3.36,1.41s-1.26,1.57-1.14,2.49c.16.92.73,1.61,1.71,2.07.98.46,2.25.57,3.81.33s2.72-.74,3.48-1.5,1.06-1.58.9-2.46c-.12-.76-.63-1.41-1.53-1.95s-2.19-.67-3.87-.39h0Z"/>
            <path class="st2" d="M87.05,392.69h-.12c-1.08,1.52-2.45,2.58-4.11,3.18s-3.45.9-5.37.9c-1.6,0-3.12-.29-4.56-.87-1.44-.58-2.7-1.41-3.78-2.49s-1.94-2.38-2.58-3.9-.96-3.22-.96-5.1c0-1.64.32-3.15.96-4.53s1.51-2.58,2.61-3.6c1.1-1.02,2.4-1.82,3.9-2.4s3.13-.87,4.89-.87,3.39.27,4.65.81,2.33,1.15,3.21,1.83v-1.8c0-1.84-.6-3.06-1.8-3.66s-2.76-.9-4.68-.9c-1.76,0-3.4.18-4.92.54-1.52.36-3.06.78-4.62,1.26l2.34-9.54c1.92-.56,3.92-.95,6-1.17s4.2-.33,6.36-.33c1.96,0,3.88.23,5.76.69,1.88.46,3.53,1.21,4.95,2.25s2.55,2.38,3.39,4.02c.84,1.64,1.24,3.66,1.2,6.06l-.66,22.68-12.06,1.02v-4.08h0ZM79.42,381.59c-1.36.2-2.48.67-3.36,1.41s-1.26,1.57-1.14,2.49c.16.92.73,1.61,1.71,2.07.98.46,2.25.57,3.81.33,1.56-.24,2.72-.74,3.48-1.5s1.06-1.58.9-2.46c-.12-.76-.63-1.41-1.53-1.95s-2.19-.67-3.87-.39h0Z"/>
            <path class="st2" d="M87.05,452.69h-.12c-1.08,1.52-2.45,2.58-4.11,3.18s-3.45.9-5.37.9c-1.6,0-3.12-.29-4.56-.87-1.44-.58-2.7-1.41-3.78-2.49s-1.94-2.38-2.58-3.9-.96-3.22-.96-5.1c0-1.64.32-3.15.96-4.53s1.51-2.58,2.61-3.6c1.1-1.02,2.4-1.82,3.9-2.4s3.13-.87,4.89-.87,3.39.27,4.65.81,2.33,1.15,3.21,1.83v-1.8c0-1.84-.6-3.06-1.8-3.66s-2.76-.9-4.68-.9c-1.76,0-3.4.18-4.92.54-1.52.36-3.06.78-4.62,1.26l2.34-9.54c1.92-.56,3.92-.95,6-1.17s4.2-.33,6.36-.33c1.96,0,3.88.23,5.76.69,1.88.46,3.53,1.21,4.95,2.25s2.55,2.38,3.39,4.02c.84,1.64,1.24,3.66,1.2,6.06l-.66,22.68-12.06,1.02v-4.08h0ZM79.42,441.59c-1.36.2-2.48.67-3.36,1.41s-1.26,1.57-1.14,2.49c.16.92.73,1.61,1.71,2.07.98.46,2.25.57,3.81.33,1.56-.24,2.72-.74,3.48-1.5s1.06-1.58.9-2.46c-.12-.76-.63-1.41-1.53-1.95s-2.19-.67-3.87-.39h0Z"/>
            <path class="st2" d="M87.05,512.69h-.12c-1.08,1.52-2.45,2.58-4.11,3.18s-3.45.9-5.37.9c-1.6,0-3.12-.29-4.56-.87-1.44-.58-2.7-1.41-3.78-2.49s-1.94-2.38-2.58-3.9-.96-3.22-.96-5.1c0-1.64.32-3.15.96-4.53s1.51-2.58,2.61-3.6c1.1-1.02,2.4-1.82,3.9-2.4s3.13-.87,4.89-.87,3.39.27,4.65.81,2.33,1.15,3.21,1.83v-1.8c0-1.84-.6-3.06-1.8-3.66s-2.76-.9-4.68-.9c-1.76,0-3.4.18-4.92.54-1.52.36-3.06.78-4.62,1.26l2.34-9.54c1.92-.56,3.92-.95,6-1.17s4.2-.33,6.36-.33c1.96,0,3.88.23,5.76.69,1.88.46,3.53,1.21,4.95,2.25s2.55,2.38,3.39,4.02c.84,1.64,1.24,3.66,1.2,6.06l-.66,22.68-12.06,1.02v-4.08h0ZM79.42,501.59c-1.36.2-2.48.67-3.36,1.41s-1.26,1.57-1.14,2.49c.16.92.73,1.61,1.71,2.07.98.46,2.25.57,3.81.33s2.72-.74,3.48-1.5,1.06-1.58.9-2.46c-.12-.76-.63-1.41-1.53-1.95s-2.19-.67-3.87-.39h0Z"/>
            <path class="st2" d="M87.05,572.69h-.12c-1.08,1.52-2.45,2.58-4.11,3.18s-3.45.9-5.37.9c-1.6,0-3.12-.29-4.56-.87-1.44-.58-2.7-1.41-3.78-2.49s-1.94-2.38-2.58-3.9-.96-3.22-.96-5.1c0-1.64.32-3.15.96-4.53s1.51-2.58,2.61-3.6c1.1-1.02,2.4-1.82,3.9-2.4s3.13-.87,4.89-.87,3.39.27,4.65.81,2.33,1.15,3.21,1.83v-1.8c0-1.84-.6-3.06-1.8-3.66s-2.76-.9-4.68-.9c-1.76,0-3.4.18-4.92.54s-3.06.78-4.62,1.26l2.34-9.54c1.92-.56,3.92-.95,6-1.17s4.2-.33,6.36-.33c1.96,0,3.88.23,5.76.69,1.88.46,3.53,1.21,4.95,2.25s2.55,2.38,3.39,4.02,1.24,3.66,1.2,6.06l-.66,22.68-12.06,1.02v-4.08h0ZM79.42,561.59c-1.36.2-2.48.67-3.36,1.41s-1.26,1.57-1.14,2.49c.16.92.73,1.61,1.71,2.07.98.46,2.25.57,3.81.33s2.72-.74,3.48-1.5,1.06-1.58.9-2.46c-.12-.76-.63-1.41-1.53-1.95s-2.19-.67-3.87-.39h0Z"/>
            <path class="st2" d="M87.05,632.69h-.12c-1.08,1.52-2.45,2.58-4.11,3.18s-3.45.9-5.37.9c-1.6,0-3.12-.29-4.56-.87-1.44-.58-2.7-1.41-3.78-2.49s-1.94-2.38-2.58-3.9-.96-3.22-.96-5.1c0-1.64.32-3.15.96-4.53s1.51-2.58,2.61-3.6c1.1-1.02,2.4-1.82,3.9-2.4s3.13-.87,4.89-.87,3.39.27,4.65.81,2.33,1.15,3.21,1.83v-1.8c0-1.84-.6-3.06-1.8-3.66s-2.76-.9-4.68-.9c-1.76,0-3.4.18-4.92.54s-3.06.78-4.62,1.26l2.34-9.54c1.92-.56,3.92-.95,6-1.17s4.2-.33,6.36-.33c1.96,0,3.88.23,5.76.69,1.88.46,3.53,1.21,4.95,2.25s2.55,2.38,3.39,4.02,1.24,3.66,1.2,6.06l-.66,22.68-12.06,1.02v-4.08h0ZM79.42,621.59c-1.36.2-2.48.67-3.36,1.41s-1.26,1.57-1.14,2.49c.16.92.73,1.61,1.71,2.07.98.46,2.25.57,3.81.33s2.72-.74,3.48-1.5,1.06-1.58.9-2.46c-.12-.76-.63-1.41-1.53-1.95-.9-.54-2.19-.67-3.87-.39h0Z"/>
            <path class="st2" d="M87.05,692.69h-.12c-1.08,1.52-2.45,2.58-4.11,3.18s-3.45.9-5.37.9c-1.6,0-3.12-.29-4.56-.87-1.44-.58-2.7-1.41-3.78-2.49s-1.94-2.38-2.58-3.9-.96-3.22-.96-5.1c0-1.64.32-3.15.96-4.53s1.51-2.58,2.61-3.6c1.1-1.02,2.4-1.82,3.9-2.4s3.13-.87,4.89-.87,3.39.27,4.65.81,2.33,1.15,3.21,1.83v-1.8c0-1.84-.6-3.06-1.8-3.66s-2.76-.9-4.68-.9c-1.76,0-3.4.18-4.92.54s-3.06.78-4.62,1.26l2.34-9.54c1.92-.56,3.92-.95,6-1.17s4.2-.33,6.36-.33c1.96,0,3.88.23,5.76.69,1.88.46,3.53,1.21,4.95,2.25s2.55,2.38,3.39,4.02,1.24,3.66,1.2,6.06l-.66,22.68-12.06,1.02v-4.08h0ZM79.42,681.59c-1.36.2-2.48.67-3.36,1.41s-1.26,1.57-1.14,2.49c.16.92.73,1.61,1.71,2.07.98.46,2.25.57,3.81.33s2.72-.74,3.48-1.5,1.06-1.58.9-2.46c-.12-.76-.63-1.41-1.53-1.95-.9-.54-2.19-.67-3.87-.39h0Z"/>
            <path class="st2" d="M87.05,752.69h-.12c-1.08,1.52-2.45,2.58-4.11,3.18s-3.45.9-5.37.9c-1.6,0-3.12-.29-4.56-.87-1.44-.58-2.7-1.41-3.78-2.49s-1.94-2.38-2.58-3.9-.96-3.22-.96-5.1c0-1.64.32-3.15.96-4.53s1.51-2.58,2.61-3.6c1.1-1.02,2.4-1.82,3.9-2.4s3.13-.87,4.89-.87,3.39.27,4.65.81,2.33,1.15,3.21,1.83v-1.8c0-1.84-.6-3.06-1.8-3.66s-2.76-.9-4.68-.9c-1.76,0-3.4.18-4.92.54s-3.06.78-4.62,1.26l2.34-9.54c1.92-.56,3.92-.95,6-1.17s4.2-.33,6.36-.33c1.96,0,3.88.23,5.76.69,1.88.46,3.53,1.21,4.95,2.25s2.55,2.38,3.39,4.02,1.24,3.66,1.2,6.06l-.66,22.68-12.06,1.02v-4.08h0ZM79.42,741.59c-1.36.2-2.48.67-3.36,1.41s-1.26,1.57-1.14,2.49c.16.92.73,1.61,1.71,2.07.98.46,2.25.57,3.81.33s2.72-.74,3.48-1.5,1.06-1.58.9-2.46c-.12-.76-.63-1.41-1.53-1.95-.9-.54-2.19-.67-3.87-.39h0Z"/>
            <path class="st2" d="M87.05,812.69h-.12c-1.08,1.52-2.45,2.58-4.11,3.18s-3.45.9-5.37.9c-1.6,0-3.12-.29-4.56-.87-1.44-.58-2.7-1.41-3.78-2.49s-1.94-2.38-2.58-3.9-.96-3.22-.96-5.1c0-1.64.32-3.15.96-4.53s1.51-2.58,2.61-3.6c1.1-1.02,2.4-1.82,3.9-2.4s3.13-.87,4.89-.87,3.39.27,4.65.81,2.33,1.15,3.21,1.83v-1.8c0-1.84-.6-3.06-1.8-3.66s-2.76-.9-4.68-.9c-1.76,0-3.4.18-4.92.54s-3.06.78-4.62,1.26l2.34-9.54c1.92-.56,3.92-.95,6-1.17s4.2-.33,6.36-.33c1.96,0,3.88.23,5.76.69,1.88.46,3.53,1.21,4.95,2.25s2.55,2.38,3.39,4.02,1.24,3.66,1.2,6.06l-.66,22.68-12.06,1.02v-4.08h0ZM79.42,801.59c-1.36.2-2.48.67-3.36,1.41s-1.26,1.57-1.14,2.49c.16.92.73,1.61,1.71,2.07.98.46,2.25.57,3.81.33s2.72-.74,3.48-1.5,1.06-1.58.9-2.46c-.12-.76-.63-1.41-1.53-1.95-.9-.54-2.19-.67-3.87-.39h0Z"/>
            <path class="st2" d="M87.05,872.69h-.12c-1.08,1.52-2.45,2.58-4.11,3.18s-3.45.9-5.37.9c-1.6,0-3.12-.29-4.56-.87-1.44-.58-2.7-1.41-3.78-2.49s-1.94-2.38-2.58-3.9-.96-3.22-.96-5.1c0-1.64.32-3.15.96-4.53s1.51-2.58,2.61-3.6c1.1-1.02,2.4-1.82,3.9-2.4s3.13-.87,4.89-.87,3.39.27,4.65.81,2.33,1.15,3.21,1.83v-1.8c0-1.84-.6-3.06-1.8-3.66s-2.76-.9-4.68-.9c-1.76,0-3.4.18-4.92.54s-3.06.78-4.62,1.26l2.34-9.54c1.92-.56,3.92-.95,6-1.17s4.2-.33,6.36-.33c1.96,0,3.88.23,5.76.69,1.88.46,3.53,1.21,4.95,2.25s2.55,2.38,3.39,4.02,1.24,3.66,1.2,6.06l-.66,22.68-12.06,1.02v-4.08h0ZM79.42,861.59c-1.36.2-2.48.67-3.36,1.41s-1.26,1.57-1.14,2.49c.16.92.73,1.61,1.71,2.07.98.46,2.25.57,3.81.33s2.72-.74,3.48-1.5,1.06-1.58.9-2.46c-.12-.76-.63-1.41-1.53-1.95-.9-.54-2.19-.67-3.87-.39h0Z"/>
          </g>
          <g>
            <path class="st2" d="M10.73,99.91c5.64-1.08,10.29-1.8,13.95-2.16s6.55-.53,8.67-.51,4.02.21,5.7.57c1.64.76,2.98,1.51,4.02,2.25s2.03,1.68,2.97,2.82c.94,1.14,1.52,2.46,1.74,3.96s-.08,3.19-.9,5.07-2.45,3.96-4.89,6.24c3.36,1.76,5.75,3.65,7.17,5.67,1.42,2.02,2.2,4.01,2.34,5.97s-.16,3.84-.9,5.64-1.6,3.38-2.58,4.74-2.29,2.86-3.93,4.5c-.04.04-.31.21-.81.51s-1.48.66-2.94,1.08-3.41.77-5.85,1.05-5.6.41-9.48.39c-3.88-.02-8.5-.33-13.86-.93,0,0-.42-46.86-.42-46.86ZM35.42,129.61c-.06-.4-.24-.87-.54-1.41s-.79-.97-1.47-1.29-1.63-.42-2.85-.3c-1.22.12-2.79.64-4.71,1.56l.78,6.3c2.2.2,3.91.1,5.13-.3,1.22-.4,2.1-.89,2.64-1.47s.91-1.39,1.11-2.43c0-.04-.03-.26-.09-.66ZM31.94,111.34c-.3-.42-.85-.7-1.65-.84s-2,.11-3.6.75l-.24,6.3c1.24.2,2.25.09,3.03-.33s1.38-.92,1.8-1.5.77-1.37,1.05-2.37c.04-.92-.09-1.59-.39-2.01Z"/>
            <path class="st2" d="M32.33,202.69h-.12c-1.08,1.52-2.45,2.58-4.11,3.18s-3.45.9-5.37.9c-1.6,0-3.12-.29-4.56-.87s-2.7-1.41-3.78-2.49-1.94-2.38-2.58-3.9c-.64-1.52-.96-3.22-.96-5.1,0-1.64.32-3.15.96-4.53s1.51-2.58,2.61-3.6c1.1-1.02,2.4-1.82,3.9-2.4s3.13-.87,4.89-.87,3.39.27,4.65.81,2.33,1.15,3.21,1.83v-1.8c0-1.84-.6-3.06-1.8-3.66s-2.76-.9-4.68-.9c-1.76,0-3.4.18-4.92.54s-3.06.78-4.62,1.26l2.34-9.54c1.92-.56,3.92-.95,6-1.17s4.2-.33,6.36-.33c1.96,0,3.88.23,5.76.69,1.88.46,3.53,1.21,4.95,2.25,1.42,1.04,2.55,2.38,3.39,4.02s1.24,3.66,1.2,6.06l-.66,22.68-12.06,1.02v-4.08h0ZM24.71,191.59c-1.36.2-2.48.67-3.36,1.41-.88.74-1.26,1.57-1.14,2.49.16.92.73,1.61,1.71,2.07s2.25.57,3.81.33,2.72-.74,3.48-1.5,1.06-1.58.9-2.46c-.12-.76-.63-1.41-1.53-1.95-.9-.54-2.19-.67-3.87-.39h0Z"/>
            <path class="st2" d="M32.33,262.69h-.12c-1.08,1.52-2.45,2.58-4.11,3.18s-3.45.9-5.37.9c-1.6,0-3.12-.29-4.56-.87s-2.7-1.41-3.78-2.49-1.94-2.38-2.58-3.9-.96-3.22-.96-5.1c0-1.64.32-3.15.96-4.53s1.51-2.58,2.61-3.6c1.1-1.02,2.4-1.82,3.9-2.4s3.13-.87,4.89-.87,3.39.27,4.65.81,2.33,1.15,3.21,1.83v-1.8c0-1.84-.6-3.06-1.8-3.66s-2.76-.9-4.68-.9c-1.76,0-3.4.18-4.92.54s-3.06.78-4.62,1.26l2.34-9.54c1.92-.56,3.92-.95,6-1.17s4.2-.33,6.36-.33c1.96,0,3.88.23,5.76.69,1.88.46,3.53,1.21,4.95,2.25,1.42,1.04,2.55,2.38,3.39,4.02s1.24,3.66,1.2,6.06l-.66,22.68-12.06,1.02v-4.08ZM24.71,251.59c-1.36.2-2.48.67-3.36,1.41-.88.74-1.26,1.57-1.14,2.49.16.92.73,1.61,1.71,2.07s2.25.57,3.81.33,2.72-.74,3.48-1.5,1.06-1.58.9-2.46c-.12-.76-.63-1.41-1.53-1.95-.9-.54-2.19-.67-3.87-.39h0Z"/>
            <path class="st2" d="M32.33,322.69h-.12c-1.08,1.52-2.45,2.58-4.11,3.18s-3.45.9-5.37.9c-1.6,0-3.12-.29-4.56-.87s-2.7-1.41-3.78-2.49-1.94-2.38-2.58-3.9-.96-3.22-.96-5.1c0-1.64.32-3.15.96-4.53s1.51-2.58,2.61-3.6c1.1-1.02,2.4-1.82,3.9-2.4s3.13-.87,4.89-.87,3.39.27,4.65.81,2.33,1.15,3.21,1.83v-1.8c0-1.84-.6-3.06-1.8-3.66s-2.76-.9-4.68-.9c-1.76,0-3.4.18-4.92.54s-3.06.78-4.62,1.26l2.34-9.54c1.92-.56,3.92-.95,6-1.17s4.2-.33,6.36-.33c1.96,0,3.88.23,5.76.69,1.88.46,3.53,1.21,4.95,2.25,1.42,1.04,2.55,2.38,3.39,4.02s1.24,3.66,1.2,6.06l-.66,22.68-12.06,1.02v-4.08ZM24.71,311.59c-1.36.2-2.48.67-3.36,1.41-.88.74-1.26,1.57-1.14,2.49.16.92.73,1.61,1.71,2.07s2.25.57,3.81.33,2.72-.74,3.48-1.5,1.06-1.58.9-2.46c-.12-.76-.63-1.41-1.53-1.95-.9-.54-2.19-.67-3.87-.39h0Z"/>
            <path class="st2" d="M32.33,382.69h-.12c-1.08,1.52-2.45,2.58-4.11,3.18s-3.45.9-5.37.9c-1.6,0-3.12-.29-4.56-.87s-2.7-1.41-3.78-2.49-1.94-2.38-2.58-3.9-.96-3.22-.96-5.1c0-1.64.32-3.15.96-4.53s1.51-2.58,2.61-3.6c1.1-1.02,2.4-1.82,3.9-2.4s3.13-.87,4.89-.87,3.39.27,4.65.81,2.33,1.15,3.21,1.83v-1.8c0-1.84-.6-3.06-1.8-3.66s-2.76-.9-4.68-.9c-1.76,0-3.4.18-4.92.54-1.52.36-3.06.78-4.62,1.26l2.34-9.54c1.92-.56,3.92-.95,6-1.17s4.2-.33,6.36-.33c1.96,0,3.88.23,5.76.69,1.88.46,3.53,1.21,4.95,2.25,1.42,1.04,2.55,2.38,3.39,4.02.84,1.64,1.24,3.66,1.2,6.06l-.66,22.68-12.06,1.02v-4.08ZM24.71,371.59c-1.36.2-2.48.67-3.36,1.41-.88.74-1.26,1.57-1.14,2.49.16.92.73,1.61,1.71,2.07.98.46,2.25.57,3.81.33,1.56-.24,2.72-.74,3.48-1.5s1.06-1.58.9-2.46c-.12-.76-.63-1.41-1.53-1.95-.9-.54-2.19-.67-3.87-.39h0Z"/>
            <path class="st2" d="M32.33,442.69h-.12c-1.08,1.52-2.45,2.58-4.11,3.18s-3.45.9-5.37.9c-1.6,0-3.12-.29-4.56-.87s-2.7-1.41-3.78-2.49-1.94-2.38-2.58-3.9-.96-3.22-.96-5.1c0-1.64.32-3.15.96-4.53s1.51-2.58,2.61-3.6c1.1-1.02,2.4-1.82,3.9-2.4s3.13-.87,4.89-.87,3.39.27,4.65.81,2.33,1.15,3.21,1.83v-1.8c0-1.84-.6-3.06-1.8-3.66s-2.76-.9-4.68-.9c-1.76,0-3.4.18-4.92.54-1.52.36-3.06.78-4.62,1.26l2.34-9.54c1.92-.56,3.92-.95,6-1.17s4.2-.33,6.36-.33c1.96,0,3.88.23,5.76.69,1.88.46,3.53,1.21,4.95,2.25,1.42,1.04,2.55,2.38,3.39,4.02.84,1.64,1.24,3.66,1.2,6.06l-.66,22.68-12.06,1.02v-4.08ZM24.71,431.59c-1.36.2-2.48.67-3.36,1.41-.88.74-1.26,1.57-1.14,2.49.16.92.73,1.61,1.71,2.07.98.46,2.25.57,3.81.33,1.56-.24,2.72-.74,3.48-1.5s1.06-1.58.9-2.46c-.12-.76-.63-1.41-1.53-1.95-.9-.54-2.19-.67-3.87-.39h0Z"/>
            <path class="st2" d="M32.33,502.69h-.12c-1.08,1.52-2.45,2.58-4.11,3.18s-3.45.9-5.37.9c-1.6,0-3.12-.29-4.56-.87s-2.7-1.41-3.78-2.49-1.94-2.38-2.58-3.9-.96-3.22-.96-5.1c0-1.64.32-3.15.96-4.53s1.51-2.58,2.61-3.6c1.1-1.02,2.4-1.82,3.9-2.4s3.13-.87,4.89-.87,3.39.27,4.65.81,2.33,1.15,3.21,1.83v-1.8c0-1.84-.6-3.06-1.8-3.66s-2.76-.9-4.68-.9c-1.76,0-3.4.18-4.92.54-1.52.36-3.06.78-4.62,1.26l2.34-9.54c1.92-.56,3.92-.95,6-1.17s4.2-.33,6.36-.33c1.96,0,3.88.23,5.76.69,1.88.46,3.53,1.21,4.95,2.25,1.42,1.04,2.55,2.38,3.39,4.02.84,1.64,1.24,3.66,1.2,6.06l-.66,22.68-12.06,1.02v-4.08ZM24.71,491.59c-1.36.2-2.48.67-3.36,1.41s-1.26,1.57-1.14,2.49c.16.92.73,1.61,1.71,2.07.98.46,2.25.57,3.81.33,1.56-.24,2.72-.74,3.48-1.5s1.06-1.58.9-2.46c-.12-.76-.63-1.41-1.53-1.95-.9-.54-2.19-.67-3.87-.39h0Z"/>
            <path class="st2" d="M32.33,562.69h-.12c-1.08,1.52-2.45,2.58-4.11,3.18s-3.45.9-5.37.9c-1.6,0-3.12-.29-4.56-.87s-2.7-1.41-3.78-2.49-1.94-2.38-2.58-3.9-.96-3.22-.96-5.1c0-1.64.32-3.15.96-4.53s1.51-2.58,2.61-3.6c1.1-1.02,2.4-1.82,3.9-2.4s3.13-.87,4.89-.87,3.39.27,4.65.81,2.33,1.15,3.21,1.83v-1.8c0-1.84-.6-3.06-1.8-3.66s-2.76-.9-4.68-.9c-1.76,0-3.4.18-4.92.54s-3.06.78-4.62,1.26l2.34-9.54c1.92-.56,3.92-.95,6-1.17s4.2-.33,6.36-.33c1.96,0,3.88.23,5.76.69,1.88.46,3.53,1.21,4.95,2.25,1.42,1.04,2.55,2.38,3.39,4.02s1.24,3.66,1.2,6.06l-.66,22.68-12.06,1.02v-4.08h0ZM24.71,551.59c-1.36.2-2.48.67-3.36,1.41s-1.26,1.57-1.14,2.49c.16.92.73,1.61,1.71,2.07s2.25.57,3.81.33,2.72-.74,3.48-1.5,1.06-1.58.9-2.46c-.12-.76-.63-1.41-1.53-1.95-.9-.54-2.19-.67-3.87-.39h0Z"/>
            <path class="st2" d="M32.33,622.69h-.12c-1.08,1.52-2.45,2.58-4.11,3.18s-3.45.9-5.37.9c-1.6,0-3.12-.29-4.56-.87s-2.7-1.41-3.78-2.49-1.94-2.38-2.58-3.9-.96-3.22-.96-5.1c0-1.64.32-3.15.96-4.53s1.51-2.58,2.61-3.6c1.1-1.02,2.4-1.82,3.9-2.4s3.13-.87,4.89-.87,3.39.27,4.65.81,2.33,1.15,3.21,1.83v-1.8c0-1.84-.6-3.06-1.8-3.66s-2.76-.9-4.68-.9c-1.76,0-3.4.18-4.92.54s-3.06.78-4.62,1.26l2.34-9.54c1.92-.56,3.92-.95,6-1.17s4.2-.33,6.36-.33c1.96,0,3.88.23,5.76.69,1.88.46,3.53,1.21,4.95,2.25,1.42,1.04,2.55,2.38,3.39,4.02s1.24,3.66,1.2,6.06l-.66,22.68-12.06,1.02v-4.08h0ZM24.71,611.59c-1.36.2-2.48.67-3.36,1.41s-1.26,1.57-1.14,2.49c.16.92.73,1.61,1.71,2.07s2.25.57,3.81.33,2.72-.74,3.48-1.5,1.06-1.58.9-2.46c-.12-.76-.63-1.41-1.53-1.95-.9-.54-2.19-.67-3.87-.39h0Z"/>
            <path class="st2" d="M32.33,682.69h-.12c-1.08,1.52-2.45,2.58-4.11,3.18s-3.45.9-5.37.9c-1.6,0-3.12-.29-4.56-.87s-2.7-1.41-3.78-2.49-1.94-2.38-2.58-3.9-.96-3.22-.96-5.1c0-1.64.32-3.15.96-4.53s1.51-2.58,2.61-3.6c1.1-1.02,2.4-1.82,3.9-2.4s3.13-.87,4.89-.87,3.39.27,4.65.81,2.33,1.15,3.21,1.83v-1.8c0-1.84-.6-3.06-1.8-3.66s-2.76-.9-4.68-.9c-1.76,0-3.4.18-4.92.54s-3.06.78-4.62,1.26l2.34-9.54c1.92-.56,3.92-.95,6-1.17s4.2-.33,6.36-.33c1.96,0,3.88.23,5.76.69,1.88.46,3.53,1.21,4.95,2.25,1.42,1.04,2.55,2.38,3.39,4.02s1.24,3.66,1.2,6.06l-.66,22.68-12.06,1.02v-4.08h0ZM24.71,671.59c-1.36.2-2.48.67-3.36,1.41s-1.26,1.57-1.14,2.49c.16.92.73,1.61,1.71,2.07s2.25.57,3.81.33,2.72-.74,3.48-1.5,1.06-1.58.9-2.46c-.12-.76-.63-1.41-1.53-1.95-.9-.54-2.19-.67-3.87-.39h0Z"/>
            <path class="st2" d="M32.33,742.69h-.12c-1.08,1.52-2.45,2.58-4.11,3.18s-3.45.9-5.37.9c-1.6,0-3.12-.29-4.56-.87s-2.7-1.41-3.78-2.49-1.94-2.38-2.58-3.9-.96-3.22-.96-5.1c0-1.64.32-3.15.96-4.53s1.51-2.58,2.61-3.6c1.1-1.02,2.4-1.82,3.9-2.4s3.13-.87,4.89-.87,3.39.27,4.65.81,2.33,1.15,3.21,1.83v-1.8c0-1.84-.6-3.06-1.8-3.66s-2.76-.9-4.68-.9c-1.76,0-3.4.18-4.92.54s-3.06.78-4.62,1.26l2.34-9.54c1.92-.56,3.92-.95,6-1.17s4.2-.33,6.36-.33c1.96,0,3.88.23,5.76.69,1.88.46,3.53,1.21,4.95,2.25,1.42,1.04,2.55,2.38,3.39,4.02s1.24,3.66,1.2,6.06l-.66,22.68-12.06,1.02v-4.08h0ZM24.71,731.59c-1.36.2-2.48.67-3.36,1.41s-1.26,1.57-1.14,2.49c.16.92.73,1.61,1.71,2.07s2.25.57,3.81.33,2.72-.74,3.48-1.5,1.06-1.58.9-2.46c-.12-.76-.63-1.41-1.53-1.95-.9-.54-2.19-.67-3.87-.39h0Z"/>
            <path class="st2" d="M32.33,802.69h-.12c-1.08,1.52-2.45,2.58-4.11,3.18s-3.45.9-5.37.9c-1.6,0-3.12-.29-4.56-.87s-2.7-1.41-3.78-2.49-1.94-2.38-2.58-3.9-.96-3.22-.96-5.1c0-1.64.32-3.15.96-4.53s1.51-2.58,2.61-3.6c1.1-1.02,2.4-1.82,3.9-2.4s3.13-.87,4.89-.87,3.39.27,4.65.81,2.33,1.15,3.21,1.83v-1.8c0-1.84-.6-3.06-1.8-3.66s-2.76-.9-4.68-.9c-1.76,0-3.4.18-4.92.54s-3.06.78-4.62,1.26l2.34-9.54c1.92-.56,3.92-.95,6-1.17s4.2-.33,6.36-.33c1.96,0,3.88.23,5.76.69,1.88.46,3.53,1.21,4.95,2.25,1.42,1.04,2.55,2.38,3.39,4.02s1.24,3.66,1.2,6.06l-.66,22.68-12.06,1.02v-4.08h0ZM24.71,791.59c-1.36.2-2.48.67-3.36,1.41s-1.26,1.57-1.14,2.49c.16.92.73,1.61,1.71,2.07s2.25.57,3.81.33,2.72-.74,3.48-1.5,1.06-1.58.9-2.46c-.12-.76-.63-1.41-1.53-1.95-.9-.54-2.19-.67-3.87-.39h0Z"/>
            <path class="st2" d="M32.33,862.69h-.12c-1.08,1.52-2.45,2.58-4.11,3.18s-3.45.9-5.37.9c-1.6,0-3.12-.29-4.56-.87s-2.7-1.41-3.78-2.49-1.94-2.38-2.58-3.9-.96-3.22-.96-5.1c0-1.64.32-3.15.96-4.53s1.51-2.58,2.61-3.6c1.1-1.02,2.4-1.82,3.9-2.4s3.13-.87,4.89-.87,3.39.27,4.65.81,2.33,1.15,3.21,1.83v-1.8c0-1.84-.6-3.06-1.8-3.66s-2.76-.9-4.68-.9c-1.76,0-3.4.18-4.92.54s-3.06.78-4.62,1.26l2.34-9.54c1.92-.56,3.92-.95,6-1.17s4.2-.33,6.36-.33c1.96,0,3.88.23,5.76.69,1.88.46,3.53,1.21,4.95,2.25,1.42,1.04,2.55,2.38,3.39,4.02s1.24,3.66,1.2,6.06l-.66,22.68-12.06,1.02v-4.08h0ZM24.71,851.59c-1.36.2-2.48.67-3.36,1.41s-1.26,1.57-1.14,2.49c.16.92.73,1.61,1.71,2.07s2.25.57,3.81.33,2.72-.74,3.48-1.5,1.06-1.58.9-2.46c-.12-.76-.63-1.41-1.53-1.95-.9-.54-2.19-.67-3.87-.39h0Z"/>
          </g>
        </g>
      </g>
    </g>
  </g>
</svg>